<svg xmlns="http://www.w3.org/2000/svg" width="1600" height="860" viewBox="0 0 1600 860">
<rect width="100%" height="100%" fill="#FFFFFF"/>
<line x1="260.00" y1="55.00" x2="291.00" y2="55.00" stroke="#0072B2" stroke-width="3"/>
<circle cx="275.00" cy="55.00" r="5.00" fill="#0072B2" stroke="#0072B2" stroke-width="1.5"/>
<text x="301.00" y="61.00" font-family="DejaVu Sans, Arial, sans-serif" font-size="14" font-weight="400" fill="#20242A" text-anchor="start">PGPR</text>
<line x1="440.00" y1="55.00" x2="471.00" y2="55.00" stroke="#D55E00" stroke-width="3" stroke-dasharray="9 4"/>
<rect x="450.00" y="50.00" width="10.00" height="10.00" rx="0" fill="#D55E00" stroke="#D55E00" stroke-width="1.5"/>
<text x="481.00" y="61.00" font-family="DejaVu Sans, Arial, sans-serif" font-size="14" font-weight="400" fill="#20242A" text-anchor="start">UCPR</text>
<line x1="620.00" y1="55.00" x2="651.00" y2="55.00" stroke="#009E73" stroke-width="3" stroke-dasharray="3 3"/>
<polygon points="635.00,49.00 630.00,60.00 640.00,60.00" fill="#009E73" stroke="#009E73" stroke-width="1.5"/>
<text x="661.00" y="61.00" font-family="DejaVu Sans, Arial, sans-serif" font-size="14" font-weight="400" fill="#20242A" text-anchor="start">CAFE</text>
<line x1="800.00" y1="55.00" x2="831.00" y2="55.00" stroke="#7A5195" stroke-width="3" stroke-dasharray="11 3 2 3"/>
<polygon points="815.00,49.00 810.00,55.00 815.00,61.00 820.00,55.00" fill="#7A5195" stroke="#7A5195" stroke-width="1.5"/>
<text x="841.00" y="61.00" font-family="DejaVu Sans, Arial, sans-serif" font-size="14" font-weight="400" fill="#20242A" text-anchor="start">TPRec</text>
<line x1="980.00" y1="55.00" x2="1011.00" y2="55.00" stroke="#333333" stroke-width="3" stroke-dasharray="2 5"/>
<line x1="990.00" y1="55.00" x2="1000.00" y2="55.00" stroke="#333333" stroke-width="2"/>
<line x1="995.00" y1="50.00" x2="995.00" y2="60.00" stroke="#333333" stroke-width="2"/>
<text x="1021.00" y="61.00" font-family="DejaVu Sans, Arial, sans-serif" font-size="14" font-weight="400" fill="#20242A" text-anchor="start">KGGLM</text>
<line x1="1160.00" y1="55.00" x2="1191.00" y2="55.00" stroke="#E69F00" stroke-width="3" stroke-dasharray="7 3 2 3"/>
<line x1="1170.00" y1="50.00" x2="1180.00" y2="60.00" stroke="#E69F00" stroke-width="2"/>
<line x1="1170.00" y1="60.00" x2="1180.00" y2="50.00" stroke="#E69F00" stroke-width="2"/>
<text x="1201.00" y="61.00" font-family="DejaVu Sans, Arial, sans-serif" font-size="14" font-weight="400" fill="#20242A" text-anchor="start">PEARLM</text>
<rect x="95.00" y="145.00" width="650.00" height="530.00" rx="0" fill="#FAFBFC" stroke="none" stroke-width="0"/>
<line x1="95.00" y1="675.00" x2="745.00" y2="675.00" stroke="#D9DEE5" stroke-width="1"/>
<text x="85.00" y="680.00" font-family="DejaVu Sans, Arial, sans-serif" font-size="12" font-weight="400" fill="#5D6670" text-anchor="end">0.01</text>
<line x1="95.00" y1="542.50" x2="745.00" y2="542.50" stroke="#D9DEE5" stroke-width="1"/>
<text x="85.00" y="547.50" font-family="DejaVu Sans, Arial, sans-serif" font-size="12" font-weight="400" fill="#5D6670" text-anchor="end">0.04</text>
<line x1="95.00" y1="410.00" x2="745.00" y2="410.00" stroke="#D9DEE5" stroke-width="1"/>
<text x="85.00" y="415.00" font-family="DejaVu Sans, Arial, sans-serif" font-size="12" font-weight="400" fill="#5D6670" text-anchor="end">0.07</text>
<line x1="95.00" y1="277.50" x2="745.00" y2="277.50" stroke="#D9DEE5" stroke-width="1"/>
<text x="85.00" y="282.50" font-family="DejaVu Sans, Arial, sans-serif" font-size="12" font-weight="400" fill="#5D6670" text-anchor="end">0.11</text>
<line x1="95.00" y1="145.00" x2="745.00" y2="145.00" stroke="#D9DEE5" stroke-width="1"/>
<text x="85.00" y="150.00" font-family="DejaVu Sans, Arial, sans-serif" font-size="12" font-weight="400" fill="#5D6670" text-anchor="end">0.14</text>
<line x1="95.00" y1="145.00" x2="95.00" y2="675.00" stroke="#20242A" stroke-width="1.4"/>
<line x1="95.00" y1="675.00" x2="745.00" y2="675.00" stroke="#20242A" stroke-width="1.4"/>
<text x="95.00" y="700.00" font-family="DejaVu Sans, Arial, sans-serif" font-size="12" font-weight="400" fill="#5D6670" text-anchor="middle">0.1</text>
<text x="257.50" y="700.00" font-family="DejaVu Sans, Arial, sans-serif" font-size="12" font-weight="400" fill="#5D6670" text-anchor="middle">0.2</text>
<text x="420.00" y="700.00" font-family="DejaVu Sans, Arial, sans-serif" font-size="12" font-weight="400" fill="#5D6670" text-anchor="middle">0.3</text>
<text x="582.50" y="700.00" font-family="DejaVu Sans, Arial, sans-serif" font-size="12" font-weight="400" fill="#5D6670" text-anchor="middle">0.3</text>
<text x="745.00" y="700.00" font-family="DejaVu Sans, Arial, sans-serif" font-size="12" font-weight="400" fill="#5D6670" text-anchor="middle">0.4</text>
<text x="95.00" y="132.00" font-family="DejaVu Sans, Arial, sans-serif" font-size="14" font-weight="600" fill="#5D6670" text-anchor="start">Sweep NDCG</text>
<text x="420.00" y="728.00" font-family="DejaVu Sans, Arial, sans-serif" font-size="14" font-weight="500" fill="#20242A" text-anchor="middle">Implemented ETD score</text>
<text x="95.00" y="102.00" font-family="DejaVu Sans, Arial, sans-serif" font-size="19" font-weight="700" fill="#20242A" text-anchor="start">(a) LastFM</text>
<polyline points="187.41,252.54 275.92,252.95 304.21,253.37 331.49,254.61 360.79,256.26 389.89,257.91 422.22,259.97 460.21,263.27 501.44,267.40 542.66,269.88 580.85,274.00 608.13,276.48 620.05,278.13 622.68,279.37 623.08,278.96 623.08,278.96 623.08,278.96 623.08,278.96 623.08,278.96 623.08,278.96 623.08,278.96" fill="none" stroke="#0072B2" stroke-width="2.4" stroke-linejoin="round" stroke-linecap="round"/>
<circle cx="187.41" cy="252.54" r="4.20" fill="#FFFFFF" stroke="#0072B2" stroke-width="1.5"/>
<circle cx="389.89" cy="257.91" r="4.20" fill="#0072B2" stroke="#0072B2" stroke-width="1.5"/>
<circle cx="580.85" cy="274.00" r="4.20" fill="#0072B2" stroke="#0072B2" stroke-width="1.5"/>
<circle cx="623.08" cy="278.96" r="4.20" fill="#0072B2" stroke="#0072B2" stroke-width="1.5"/>
<circle cx="623.08" cy="278.96" r="4.20" fill="#0072B2" stroke="#0072B2" stroke-width="1.5"/>
<polyline points="147.00,181.55 180.14,182.38 190.04,181.96 202.77,183.62 215.30,182.79 226.21,183.20 237.93,184.03 248.64,185.68 258.74,187.33 266.63,188.98 271.88,188.98 275.31,188.98 277.74,189.39 279.36,189.39 280.16,189.81 280.37,189.81 280.37,189.81 280.37,189.81 280.37,189.81 280.37,189.81 280.37,189.81" fill="none" stroke="#D55E00" stroke-width="2.4" stroke-linejoin="round" stroke-linecap="round" stroke-dasharray="9 4"/>
<rect x="142.80" y="177.35" width="8.40" height="8.40" rx="0" fill="#FFFFFF" stroke="#D55E00" stroke-width="1.5"/>
<rect x="222.01" y="179.00" width="8.40" height="8.40" rx="0" fill="#D55E00" stroke="#D55E00" stroke-width="1.5"/>
<rect x="267.68" y="184.78" width="8.40" height="8.40" rx="0" fill="#D55E00" stroke="#D55E00" stroke-width="1.5"/>
<rect x="276.17" y="185.61" width="8.40" height="8.40" rx="0" fill="#D55E00" stroke="#D55E00" stroke-width="1.5"/>
<rect x="276.17" y="185.61" width="8.40" height="8.40" rx="0" fill="#D55E00" stroke="#D55E00" stroke-width="1.5"/>
<polyline points="372.92,269.46 533.77,274.00 635.21,280.61 657.03,279.37 658.65,279.37 658.65,279.37 658.65,279.37 658.65,279.37 658.65,279.37 658.65,279.37 658.65,279.37 658.65,279.37 658.65,279.37 658.65,279.37 658.65,279.37 658.65,279.37 658.65,279.37 658.65,279.37 658.65,279.37 658.65,279.37 658.65,279.37" fill="none" stroke="#009E73" stroke-width="2.4" stroke-linejoin="round" stroke-linecap="round" stroke-dasharray="3 3"/>
<polygon points="372.92,264.42 368.72,273.66 377.12,273.66" fill="#FFFFFF" stroke="#009E73" stroke-width="1.5"/>
<polygon points="658.65,274.33 654.45,283.57 662.85,283.57" fill="#009E73" stroke="#009E73" stroke-width="1.5"/>
<polygon points="658.65,274.33 654.45,283.57 662.85,283.57" fill="#009E73" stroke="#009E73" stroke-width="1.5"/>
<polygon points="658.65,274.33 654.45,283.57 662.85,283.57" fill="#009E73" stroke="#009E73" stroke-width="1.5"/>
<polygon points="658.65,274.33 654.45,283.57 662.85,283.57" fill="#009E73" stroke="#009E73" stroke-width="1.5"/>
<polyline points="262.18,225.71 388.07,224.89 457.18,226.95 522.25,229.84 579.44,234.38 626.72,236.45 660.67,239.75 683.50,240.99 696.64,241.81 704.32,241.40 707.55,242.64 709.37,242.22 709.98,242.22 710.18,242.22 710.18,242.22 710.18,242.22 710.18,242.22 710.18,242.22 710.18,242.22 710.18,242.22 710.18,242.22" fill="none" stroke="#7A5195" stroke-width="2.4" stroke-linejoin="round" stroke-linecap="round" stroke-dasharray="11 3 2 3"/>
<polygon points="262.18,220.67 257.98,225.71 262.18,230.75 266.38,225.71" fill="#FFFFFF" stroke="#7A5195" stroke-width="1.5"/>
<polygon points="626.72,231.41 622.52,236.45 626.72,241.49 630.92,236.45" fill="#7A5195" stroke="#7A5195" stroke-width="1.5"/>
<polygon points="707.55,237.60 703.35,242.64 707.55,247.68 711.75,242.64" fill="#7A5195" stroke="#7A5195" stroke-width="1.5"/>
<polygon points="710.18,237.18 705.98,242.22 710.18,247.26 714.38,242.22" fill="#7A5195" stroke="#7A5195" stroke-width="1.5"/>
<polygon points="710.18,237.18 705.98,242.22 710.18,247.26 714.38,242.22" fill="#7A5195" stroke="#7A5195" stroke-width="1.5"/>
<polyline points="160.94,612.45 161.14,612.45 161.14,612.45 161.14,612.45 161.14,612.45 161.14,612.45 162.56,612.45 162.76,612.45 162.76,612.45 162.76,612.45 162.76,612.45 165.79,612.45 166.80,612.45 166.80,612.45 166.80,612.45 166.80,612.45 166.80,612.45 166.80,612.45 166.80,612.45 166.80,612.45 166.80,612.45" fill="none" stroke="#333333" stroke-width="2.4" stroke-linejoin="round" stroke-linecap="round" stroke-dasharray="2 5"/>
<line x1="156.74" y1="612.45" x2="165.14" y2="612.45" stroke="#333333" stroke-width="2"/>
<line x1="160.94" y1="608.25" x2="160.94" y2="616.65" stroke="#333333" stroke-width="2"/>
<line x1="156.94" y1="612.45" x2="165.34" y2="612.45" stroke="#333333" stroke-width="2"/>
<line x1="161.14" y1="608.25" x2="161.14" y2="616.65" stroke="#333333" stroke-width="2"/>
<line x1="158.56" y1="612.45" x2="166.96" y2="612.45" stroke="#333333" stroke-width="2"/>
<line x1="162.76" y1="608.25" x2="162.76" y2="616.65" stroke="#333333" stroke-width="2"/>
<line x1="162.60" y1="612.45" x2="171.00" y2="612.45" stroke="#333333" stroke-width="2"/>
<line x1="166.80" y1="608.25" x2="166.80" y2="616.65" stroke="#333333" stroke-width="2"/>
<line x1="162.60" y1="612.45" x2="171.00" y2="612.45" stroke="#333333" stroke-width="2"/>
<line x1="166.80" y1="608.25" x2="166.80" y2="616.65" stroke="#333333" stroke-width="2"/>
<polyline points="129.82,638.45 130.02,638.45 130.02,638.45 130.02,638.45 130.02,638.45 130.23,638.45 130.23,638.45 130.23,638.45 130.63,638.45 130.83,638.45 130.83,638.45 130.83,638.45 131.03,638.45 131.03,638.45 131.03,638.45 131.03,638.45 131.03,638.45 131.03,638.45 131.03,638.45 131.03,638.45 131.03,638.45" fill="none" stroke="#E69F00" stroke-width="2.4" stroke-linejoin="round" stroke-linecap="round" stroke-dasharray="7 3 2 3"/>
<line x1="125.62" y1="634.25" x2="134.02" y2="642.65" stroke="#E69F00" stroke-width="2"/>
<line x1="125.62" y1="642.65" x2="134.02" y2="634.25" stroke="#E69F00" stroke-width="2"/>
<line x1="126.03" y1="634.25" x2="134.43" y2="642.65" stroke="#E69F00" stroke-width="2"/>
<line x1="126.03" y1="642.65" x2="134.43" y2="634.25" stroke="#E69F00" stroke-width="2"/>
<line x1="126.63" y1="634.25" x2="135.03" y2="642.65" stroke="#E69F00" stroke-width="2"/>
<line x1="126.63" y1="642.65" x2="135.03" y2="634.25" stroke="#E69F00" stroke-width="2"/>
<line x1="126.83" y1="634.25" x2="135.23" y2="642.65" stroke="#E69F00" stroke-width="2"/>
<line x1="126.83" y1="642.65" x2="135.23" y2="634.25" stroke="#E69F00" stroke-width="2"/>
<line x1="126.83" y1="634.25" x2="135.23" y2="642.65" stroke="#E69F00" stroke-width="2"/>
<line x1="126.83" y1="642.65" x2="135.23" y2="634.25" stroke="#E69F00" stroke-width="2"/>
<rect x="855.00" y="145.00" width="650.00" height="530.00" rx="0" fill="#FAFBFC" stroke="none" stroke-width="0"/>
<line x1="855.00" y1="675.00" x2="1505.00" y2="675.00" stroke="#D9DEE5" stroke-width="1"/>
<text x="845.00" y="680.00" font-family="DejaVu Sans, Arial, sans-serif" font-size="12" font-weight="400" fill="#5D6670" text-anchor="end">0.04</text>
<line x1="855.00" y1="542.50" x2="1505.00" y2="542.50" stroke="#D9DEE5" stroke-width="1"/>
<text x="845.00" y="547.50" font-family="DejaVu Sans, Arial, sans-serif" font-size="12" font-weight="400" fill="#5D6670" text-anchor="end">0.06</text>
<line x1="855.00" y1="410.00" x2="1505.00" y2="410.00" stroke="#D9DEE5" stroke-width="1"/>
<text x="845.00" y="415.00" font-family="DejaVu Sans, Arial, sans-serif" font-size="12" font-weight="400" fill="#5D6670" text-anchor="end">0.08</text>
<line x1="855.00" y1="277.50" x2="1505.00" y2="277.50" stroke="#D9DEE5" stroke-width="1"/>
<text x="845.00" y="282.50" font-family="DejaVu Sans, Arial, sans-serif" font-size="12" font-weight="400" fill="#5D6670" text-anchor="end">0.10</text>
<line x1="855.00" y1="145.00" x2="1505.00" y2="145.00" stroke="#D9DEE5" stroke-width="1"/>
<text x="845.00" y="150.00" font-family="DejaVu Sans, Arial, sans-serif" font-size="12" font-weight="400" fill="#5D6670" text-anchor="end">0.12</text>
<line x1="855.00" y1="145.00" x2="855.00" y2="675.00" stroke="#20242A" stroke-width="1.4"/>
<line x1="855.00" y1="675.00" x2="1505.00" y2="675.00" stroke="#20242A" stroke-width="1.4"/>
<text x="855.00" y="700.00" font-family="DejaVu Sans, Arial, sans-serif" font-size="12" font-weight="400" fill="#5D6670" text-anchor="middle">0.0</text>
<text x="1017.50" y="700.00" font-family="DejaVu Sans, Arial, sans-serif" font-size="12" font-weight="400" fill="#5D6670" text-anchor="middle">0.3</text>
<text x="1180.00" y="700.00" font-family="DejaVu Sans, Arial, sans-serif" font-size="12" font-weight="400" fill="#5D6670" text-anchor="middle">0.5</text>
<text x="1342.50" y="700.00" font-family="DejaVu Sans, Arial, sans-serif" font-size="12" font-weight="400" fill="#5D6670" text-anchor="middle">0.7</text>
<text x="1505.00" y="700.00" font-family="DejaVu Sans, Arial, sans-serif" font-size="12" font-weight="400" fill="#5D6670" text-anchor="middle">0.9</text>
<text x="855.00" y="132.00" font-family="DejaVu Sans, Arial, sans-serif" font-size="14" font-weight="600" fill="#5D6670" text-anchor="start">Sweep NDCG</text>
<text x="1180.00" y="728.00" font-family="DejaVu Sans, Arial, sans-serif" font-size="14" font-weight="500" fill="#20242A" text-anchor="middle">Implemented ETD score</text>
<text x="855.00" y="102.00" font-family="DejaVu Sans, Arial, sans-serif" font-size="19" font-weight="700" fill="#20242A" text-anchor="start">(b) ML-1M</text>
<polyline points="940.35,298.60 1004.41,301.42 1047.07,312.70 1086.51,326.09 1122.29,340.20 1151.49,353.59 1174.50,367.69 1190.70,376.86 1201.17,383.21 1207.21,388.14 1211.04,388.85 1212.72,389.55 1213.48,390.26 1213.94,390.26 1214.02,390.96 1214.02,390.96 1214.02,390.96 1214.02,390.96 1214.02,390.96 1214.02,390.96 1214.02,390.96" fill="none" stroke="#0072B2" stroke-width="2.4" stroke-linejoin="round" stroke-linecap="round"/>
<circle cx="940.35" cy="298.60" r="4.20" fill="#FFFFFF" stroke="#0072B2" stroke-width="1.5"/>
<circle cx="1151.49" cy="353.59" r="4.20" fill="#0072B2" stroke="#0072B2" stroke-width="1.5"/>
<circle cx="1211.04" cy="388.85" r="4.20" fill="#0072B2" stroke="#0072B2" stroke-width="1.5"/>
<circle cx="1214.02" cy="390.96" r="4.20" fill="#0072B2" stroke="#0072B2" stroke-width="1.5"/>
<circle cx="1214.02" cy="390.96" r="4.20" fill="#0072B2" stroke="#0072B2" stroke-width="1.5"/>
<polyline points="976.81,257.00 990.04,259.82 995.39,260.52 1000.13,262.64 1003.95,264.05 1006.63,265.46 1008.31,266.16 1009.76,266.87 1010.75,267.57 1011.67,267.57 1012.21,268.28 1012.44,268.28 1012.44,268.28 1012.51,268.28 1012.51,268.28 1012.51,268.28 1012.51,268.28 1012.51,268.28 1012.51,268.28 1012.51,268.28 1012.51,268.28" fill="none" stroke="#D55E00" stroke-width="2.4" stroke-linejoin="round" stroke-linecap="round" stroke-dasharray="9 4"/>
<rect x="972.61" y="252.80" width="8.40" height="8.40" rx="0" fill="#FFFFFF" stroke="#D55E00" stroke-width="1.5"/>
<rect x="1002.43" y="261.26" width="8.40" height="8.40" rx="0" fill="#D55E00" stroke="#D55E00" stroke-width="1.5"/>
<rect x="1008.01" y="264.08" width="8.40" height="8.40" rx="0" fill="#D55E00" stroke="#D55E00" stroke-width="1.5"/>
<rect x="1008.31" y="264.08" width="8.40" height="8.40" rx="0" fill="#D55E00" stroke="#D55E00" stroke-width="1.5"/>
<rect x="1008.31" y="264.08" width="8.40" height="8.40" rx="0" fill="#D55E00" stroke="#D55E00" stroke-width="1.5"/>
<polyline points="1039.04,181.55 1273.64,245.01 1414.30,322.57 1455.35,349.36 1466.97,357.82 1469.57,359.23 1470.03,359.94 1470.18,359.94 1470.18,359.94 1470.18,359.94 1470.18,359.94 1470.18,359.94 1470.18,359.94 1470.18,359.94 1470.18,359.94 1470.18,359.94 1470.18,359.94 1470.18,359.94 1470.18,359.94 1470.18,359.94 1470.18,359.94" fill="none" stroke="#009E73" stroke-width="2.4" stroke-linejoin="round" stroke-linecap="round" stroke-dasharray="3 3"/>
<polygon points="1039.04,176.51 1034.84,185.75 1043.24,185.75" fill="#FFFFFF" stroke="#009E73" stroke-width="1.5"/>
<polygon points="1469.57,354.19 1465.37,363.43 1473.77,363.43" fill="#009E73" stroke="#009E73" stroke-width="1.5"/>
<polygon points="1470.18,354.90 1465.98,364.14 1474.38,364.14" fill="#009E73" stroke="#009E73" stroke-width="1.5"/>
<polygon points="1470.18,354.90 1465.98,364.14 1474.38,364.14" fill="#009E73" stroke="#009E73" stroke-width="1.5"/>
<polygon points="1470.18,354.90 1465.98,364.14 1474.38,364.14" fill="#009E73" stroke="#009E73" stroke-width="1.5"/>
<polyline points="1036.90,331.03 1160.05,332.44 1246.58,345.13 1300.55,359.94 1332.73,372.63 1351.54,382.50 1362.09,389.55 1368.51,392.37 1371.87,395.19 1373.78,395.90 1374.85,396.60 1375.16,397.31 1375.24,397.31 1375.31,397.31 1375.31,397.31 1375.31,397.31 1375.31,397.31 1375.31,397.31 1375.31,397.31 1375.31,397.31 1375.31,397.31" fill="none" stroke="#7A5195" stroke-width="2.4" stroke-linejoin="round" stroke-linecap="round" stroke-dasharray="11 3 2 3"/>
<polygon points="1036.90,325.99 1032.70,331.03 1036.90,336.07 1041.10,331.03" fill="#FFFFFF" stroke="#7A5195" stroke-width="1.5"/>
<polygon points="1351.54,377.46 1347.34,382.50 1351.54,387.54 1355.74,382.50" fill="#7A5195" stroke="#7A5195" stroke-width="1.5"/>
<polygon points="1374.85,391.56 1370.65,396.60 1374.85,401.64 1379.05,396.60" fill="#7A5195" stroke="#7A5195" stroke-width="1.5"/>
<polygon points="1375.31,392.27 1371.11,397.31 1375.31,402.35 1379.51,397.31" fill="#7A5195" stroke="#7A5195" stroke-width="1.5"/>
<polygon points="1375.31,392.27 1371.11,397.31 1375.31,402.35 1379.51,397.31" fill="#7A5195" stroke="#7A5195" stroke-width="1.5"/>
<polyline points="889.82,631.40 889.82,631.40 889.82,631.40 889.82,631.40 889.82,631.40 889.82,631.40 889.82,631.40 889.82,631.40 889.82,631.40 889.82,631.40 889.82,631.40 889.82,631.40 889.82,631.40 889.82,631.40 889.82,631.40 889.82,631.40 889.82,631.40 889.82,631.40 889.82,631.40 889.82,631.40 889.82,631.40" fill="none" stroke="#333333" stroke-width="2.4" stroke-linejoin="round" stroke-linecap="round" stroke-dasharray="2 5"/>
<line x1="885.62" y1="631.40" x2="894.02" y2="631.40" stroke="#333333" stroke-width="2"/>
<line x1="889.82" y1="627.20" x2="889.82" y2="635.60" stroke="#333333" stroke-width="2"/>
<line x1="885.62" y1="631.40" x2="894.02" y2="631.40" stroke="#333333" stroke-width="2"/>
<line x1="889.82" y1="627.20" x2="889.82" y2="635.60" stroke="#333333" stroke-width="2"/>
<line x1="885.62" y1="631.40" x2="894.02" y2="631.40" stroke="#333333" stroke-width="2"/>
<line x1="889.82" y1="627.20" x2="889.82" y2="635.60" stroke="#333333" stroke-width="2"/>
<line x1="885.62" y1="631.40" x2="894.02" y2="631.40" stroke="#333333" stroke-width="2"/>
<line x1="889.82" y1="627.20" x2="889.82" y2="635.60" stroke="#333333" stroke-width="2"/>
<line x1="885.62" y1="631.40" x2="894.02" y2="631.40" stroke="#333333" stroke-width="2"/>
<line x1="889.82" y1="627.20" x2="889.82" y2="635.60" stroke="#333333" stroke-width="2"/>
<polyline points="892.42,638.45 892.42,638.45 892.42,638.45 892.50,638.45 892.50,638.45 892.57,638.45 892.57,638.45 892.65,638.45 892.65,638.45 892.73,638.45 892.80,638.45 892.80,638.45 892.80,638.45 892.80,638.45 892.80,638.45 892.80,638.45 892.80,638.45 892.80,638.45 892.80,638.45 892.80,638.45 892.80,638.45" fill="none" stroke="#E69F00" stroke-width="2.4" stroke-linejoin="round" stroke-linecap="round" stroke-dasharray="7 3 2 3"/>
<line x1="888.22" y1="634.25" x2="896.62" y2="642.65" stroke="#E69F00" stroke-width="2"/>
<line x1="888.22" y1="642.65" x2="896.62" y2="634.25" stroke="#E69F00" stroke-width="2"/>
<line x1="888.37" y1="634.25" x2="896.77" y2="642.65" stroke="#E69F00" stroke-width="2"/>
<line x1="888.37" y1="642.65" x2="896.77" y2="634.25" stroke="#E69F00" stroke-width="2"/>
<line x1="888.60" y1="634.25" x2="897.00" y2="642.65" stroke="#E69F00" stroke-width="2"/>
<line x1="888.60" y1="642.65" x2="897.00" y2="634.25" stroke="#E69F00" stroke-width="2"/>
<line x1="888.60" y1="634.25" x2="897.00" y2="642.65" stroke="#E69F00" stroke-width="2"/>
<line x1="888.60" y1="642.65" x2="897.00" y2="634.25" stroke="#E69F00" stroke-width="2"/>
<line x1="888.60" y1="634.25" x2="897.00" y2="642.65" stroke="#E69F00" stroke-width="2"/>
<line x1="888.60" y1="642.65" x2="897.00" y2="634.25" stroke="#E69F00" stroke-width="2"/>
<text x="95.00" y="775.00" font-family="DejaVu Sans, Arial, sans-serif" font-size="16" font-weight="400" fill="#5D6670" text-anchor="start">ETD-oriented alpha sweep; the vertical axis is sweep NDCG, not strict NDCG@10.</text>
</svg>
