<?xml version="1.0" encoding="UTF-8" standalone="no"?>
<!DOCTYPE svg PUBLIC "-//W3C//DTD SVG 1.1//EN"
 "http://www.w3.org/Graphics/SVG/1.1/DTD/svg11.dtd">
<!-- Generated by graphviz version 14.1.2 (20260126.1125)
 -->
<!-- Title: framework_overview Pages: 1 -->
<svg width="779pt" height="361pt"
 viewBox="0.00 0.00 779.00 361.00" xmlns="http://www.w3.org/2000/svg" xmlns:xlink="http://www.w3.org/1999/xlink">
<g id="graph0" class="graph" transform="scale(1 1) rotate(0) translate(5.76 354.78)">
<title>framework_overview</title>
<polygon fill="white" stroke="none" points="-5.76,5.76 -5.76,-354.78 773.02,-354.78 773.02,5.76 -5.76,5.76"/>
<g id="clust1" class="cluster">
<title>cluster_pipeline</title>
<path fill="white" stroke="#dadce0" stroke-width="0.8" d="M20,-269.77C20,-269.77 652,-269.77 652,-269.77 658,-269.77 664,-275.77 664,-281.77 664,-281.77 664,-329.02 664,-329.02 664,-335.02 658,-341.02 652,-341.02 652,-341.02 20,-341.02 20,-341.02 14,-341.02 8,-335.02 8,-329.02 8,-329.02 8,-281.77 8,-281.77 8,-275.77 14,-269.77 20,-269.77"/>
<text xml:space="preserve" text-anchor="middle" x="336" y="-328.47" font-family="DejaVu Sans" font-size="9.00">Canonical evaluation pipeline</text>
</g>
<!-- canonical&#45;&gt;views -->
<g id="edge1" class="edge">
<title>canonical&#45;&gt;views</title>
<path fill="none" stroke="#202124" d="M144.51,-295.77C151.34,-295.77 163.09,-295.77 173.78,-295.77"/>
<polygon fill="#202124" stroke="#202124" points="173.63,-298.05 180.13,-295.77 173.63,-293.5 173.63,-298.05"/>
</g>
<!-- views&#45;&gt;execution -->
<g id="edge2" class="edge">
<title>views&#45;&gt;execution</title>
<path fill="none" stroke="#202124" d="M330.29,-295.77C339.79,-295.77 351.18,-295.77 359.2,-295.77"/>
<polygon fill="#202124" stroke="#202124" points="359.14,-298.05 365.64,-295.77 359.14,-293.5 359.14,-298.05"/>
</g>
<!-- execution&#45;&gt;contract -->
<g id="edge3" class="edge">
<title>execution&#45;&gt;contract</title>
<path fill="none" stroke="#202124" d="M484.97,-295.77C491.28,-295.77 503.02,-295.77 513.5,-295.77"/>
<polygon fill="#202124" stroke="#202124" points="513.49,-298.05 519.99,-295.77 513.49,-293.5 513.49,-298.05"/>
</g>
<!-- contract&#45;&gt;topk -->
<g id="edge4" class="edge">
<title>contract&#45;&gt;topk</title>
<path fill="none" stroke="#202124" d="M563.54,-277.35C552.04,-269.48 538.33,-260.1 526.13,-251.75"/>
<polygon fill="#202124" stroke="#202124" points="527.43,-249.88 520.78,-248.09 524.86,-253.64 527.43,-249.88"/>
</g>
<!-- contract&#45;&gt;paths -->
<g id="edge5" class="edge">
<title>contract&#45;&gt;paths</title>
<path fill="none" stroke="#202124" d="M589,-277.35C589,-270.5 589,-262.51 589,-255.04"/>
<polygon fill="#202124" stroke="#202124" points="591.28,-255.25 589,-248.75 586.73,-255.25 591.28,-255.25"/>
</g>
<!-- contract&#45;&gt;explanations -->
<g id="edge6" class="edge">
<title>contract&#45;&gt;explanations</title>
<path fill="none" stroke="#202124" d="M620.89,-277.35C635.7,-269.26 653.43,-259.58 669.03,-251.06"/>
<polygon fill="#202124" stroke="#202124" points="670.08,-253.07 674.69,-247.96 667.9,-249.08 670.08,-253.07"/>
</g>
<!-- topk&#45;&gt;validation -->
<g id="edge7" class="edge">
<title>topk&#45;&gt;validation</title>
<path fill="none" stroke="#202124" d="M520.21,-210.39C533.8,-201.37 550.33,-190.41 563.78,-181.5"/>
<polygon fill="#202124" stroke="#202124" points="564.68,-183.63 568.84,-178.14 562.17,-179.83 564.68,-183.63"/>
</g>
<!-- paths&#45;&gt;validation -->
<g id="edge8" class="edge">
<title>paths&#45;&gt;validation</title>
<path fill="none" stroke="#202124" d="M589,-210.55C589,-204.17 589,-196.78 589,-189.83"/>
<polygon fill="#202124" stroke="#202124" points="591.28,-189.98 589,-183.48 586.73,-189.98 591.28,-189.98"/>
</g>
<!-- explanations&#45;&gt;validation -->
<g id="edge9" class="edge">
<title>explanations&#45;&gt;validation</title>
<path fill="none" stroke="#202124" d="M675.17,-210.39C657.35,-200.96 635.51,-189.39 618.27,-180.27"/>
<polygon fill="#202124" stroke="#202124" points="619.34,-178.26 612.53,-177.23 617.21,-182.28 619.34,-178.26"/>
</g>
<!-- validation&#45;&gt;reportable -->
<g id="edge10" class="edge">
<title>validation&#45;&gt;reportable</title>
<path fill="none" stroke="#2f6f55" d="M568.54,-150.44C551.23,-140 526.02,-124.8 505.43,-112.38"/>
<polygon fill="#2f6f55" stroke="#2f6f55" points="506.68,-110.48 499.94,-109.07 504.33,-114.38 506.68,-110.48"/>
<text xml:space="preserve" text-anchor="middle" x="545.62" y="-124.64" font-family="DejaVu Sans" font-size="7.50" fill="#2f6f55">PASS</text>
</g>
<!-- validation&#45;&gt;boundary -->
<g id="edge11" class="edge">
<title>validation&#45;&gt;boundary</title>
<path fill="none" stroke="#9a6500" d="M605.98,-149.94C619.55,-139.69 638.88,-125.09 654.91,-112.99"/>
<polygon fill="#9a6500" stroke="#9a6500" points="656.07,-114.97 659.89,-109.23 653.33,-111.33 656.07,-114.97"/>
<text xml:space="preserve" text-anchor="middle" x="678.56" y="-124.64" font-family="DejaVu Sans" font-size="7.50" fill="#9a6500">BLOCKED / PARTIAL</text>
</g>
<!-- reportable&#45;&gt;strict -->
<g id="edge12" class="edge">
<title>reportable&#45;&gt;strict</title>
<path fill="none" stroke="#202124" d="M397.23,-72.28C340.04,-59.13 270,-43.02 270,-43.02 270,-43.02 269.51,-42.88 268.6,-42.61"/>
<polygon fill="#202124" stroke="#202124" points="269.34,-40.46 262.46,-40.84 268.08,-44.83 269.34,-40.46"/>
</g>
<!-- reportable&#45;&gt;endpoints -->
<g id="edge13" class="edge">
<title>reportable&#45;&gt;endpoints</title>
<path fill="none" stroke="#202124" d="M434.53,-71.55C417.01,-62.91 395.75,-52.44 377.38,-43.39"/>
<polygon fill="#202124" stroke="#202124" points="378.43,-41.37 371.59,-40.54 376.42,-45.45 378.43,-41.37"/>
</g>
<!-- reportable&#45;&gt;sweeps -->
<g id="edge14" class="edge">
<title>reportable&#45;&gt;sweeps</title>
<path fill="none" stroke="#202124" d="M470,-71.55C470,-64.23 470,-55.59 470,-47.62"/>
<polygon fill="#202124" stroke="#202124" points="472.28,-47.65 470,-41.15 467.73,-47.65 472.28,-47.65"/>
</g>
<!-- reportable&#45;&gt;ablation -->
<g id="edge15" class="edge">
<title>reportable&#45;&gt;ablation</title>
<path fill="none" stroke="#202124" d="M503.11,-71.55C519.45,-62.91 539.3,-52.44 556.45,-43.39"/>
<polygon fill="#202124" stroke="#202124" points="557.09,-45.62 561.78,-40.57 554.97,-41.6 557.09,-45.62"/>
</g>
<!-- boundary&#45;&gt;chapter5 -->
<g id="edge16" class="edge">
<title>boundary&#45;&gt;chapter5</title>
<path fill="none" stroke="#9a6500" d="M690.57,-71.55C693.4,-64 696.77,-55.05 699.84,-46.87"/>
<polygon fill="#9a6500" stroke="#9a6500" points="701.87,-47.94 702.03,-41.05 697.61,-46.34 701.87,-47.94"/>
</g>
<!-- canonical -->
<g id="node1" class="node">
<title>canonical</title>
<polygon fill="#eaf3f8" stroke="#202124" points="144.14,-313.77 15.86,-313.77 15.86,-277.77 144.14,-277.77 144.14,-313.77"/>
<text xml:space="preserve" text-anchor="middle" x="80" y="-298.19" font-family="DejaVu Sans" font-size="8.50" fill="#202124">Canonical dataset truth</text>
<text xml:space="preserve" text-anchor="middle" x="80" y="-287.69" font-family="DejaVu Sans" font-size="8.50" fill="#202124">users, items, splits, labels</text>
</g>
<!-- views -->
<g id="node2" class="node">
<title>views</title>
<polygon fill="white" stroke="#202124" points="329.89,-313.77 182.11,-313.77 182.11,-277.77 329.89,-277.77 329.89,-313.77"/>
<text xml:space="preserve" text-anchor="middle" x="256" y="-292.94" font-family="DejaVu Sans" font-size="8.50" fill="#202124">Model&#45;specific execution views</text>
</g>
<!-- execution -->
<g id="node3" class="node">
<title>execution</title>
<polygon fill="white" stroke="#202124" points="484.51,-313.77 367.49,-313.77 367.49,-277.77 484.51,-277.77 484.51,-313.77"/>
<text xml:space="preserve" text-anchor="middle" x="426" y="-298.19" font-family="DejaVu Sans" font-size="8.50" fill="#202124">Native model execution</text>
<text xml:space="preserve" text-anchor="middle" x="426" y="-287.69" font-family="DejaVu Sans" font-size="8.50" fill="#202124">or imported outputs</text>
</g>
<!-- contract -->
<g id="node4" class="node">
<title>contract</title>
<polygon fill="#eaf3f8" stroke="#202124" points="656.14,-313.77 521.86,-313.77 521.86,-277.77 656.14,-277.77 656.14,-313.77"/>
<text xml:space="preserve" text-anchor="middle" x="589" y="-292.94" font-family="DejaVu Sans" font-size="8.50" fill="#202124">Native&#45;path export contract</text>
</g>
<!-- topk -->
<g id="node5" class="node">
<title>topk</title>
<polygon fill="#f5f6f7" stroke="#202124" points="529.26,-246.77 458.74,-246.77 458.74,-210.77 529.26,-210.77 529.26,-246.77"/>
<text xml:space="preserve" text-anchor="middle" x="494" y="-225.94" font-family="DejaVu Sans" font-size="8.50" fill="#202124">uid_topk.csv</text>
</g>
<!-- paths -->
<g id="node6" class="node">
<title>paths</title>
<polygon fill="#f5f6f7" stroke="#202124" points="629.51,-246.77 548.49,-246.77 548.49,-210.77 629.51,-210.77 629.51,-246.77"/>
<text xml:space="preserve" text-anchor="middle" x="589" y="-225.94" font-family="DejaVu Sans" font-size="8.50" fill="#202124">pred_paths.csv</text>
</g>
<!-- explanations -->
<g id="node7" class="node">
<title>explanations</title>
<polygon fill="#f5f6f7" stroke="#202124" points="767.26,-246.77 648.74,-246.77 648.74,-210.77 767.26,-210.77 767.26,-246.77"/>
<text xml:space="preserve" text-anchor="middle" x="708" y="-225.94" font-family="DejaVu Sans" font-size="8.50" fill="#202124">uid_pid_explanation.csv</text>
</g>
<!-- validation -->
<g id="node8" class="node">
<title>validation</title>
<polygon fill="#eaf3f8" stroke="#202124" points="589,-181.77 517.24,-163.77 589,-145.77 660.76,-163.77 589,-181.77"/>
<text xml:space="preserve" text-anchor="middle" x="589" y="-160.94" font-family="DejaVu Sans" font-size="8.50" fill="#202124">Validation gate</text>
</g>
<!-- reportable -->
<g id="node9" class="node">
<title>reportable</title>
<polygon fill="#eaf4ef" stroke="#2f6f55" points="542.39,-108.02 397.61,-108.02 397.61,-72.02 542.39,-72.02 542.39,-108.02"/>
<text xml:space="preserve" text-anchor="middle" x="470" y="-92.44" font-family="DejaVu Sans" font-size="8.50" fill="#202124">PASS</text>
<text xml:space="preserve" text-anchor="middle" x="470" y="-81.94" font-family="DejaVu Sans" font-size="8.50" fill="#202124">Reportable model&#45;dataset row</text>
</g>
<!-- boundary -->
<g id="node10" class="node">
<title>boundary</title>
<polygon fill="#fff4df" stroke="#9a6500" points="734.26,-108.02 633.74,-108.02 633.74,-72.02 734.26,-72.02 734.26,-108.02"/>
<text xml:space="preserve" text-anchor="middle" x="684" y="-92.44" font-family="DejaVu Sans" font-size="8.50" fill="#202124">BLOCKED / PARTIAL</text>
<text xml:space="preserve" text-anchor="middle" x="684" y="-81.94" font-family="DejaVu Sans" font-size="8.50" fill="#202124">Boundary record</text>
</g>
<!-- strict -->
<g id="node11" class="node">
<title>strict</title>
<polygon fill="white" stroke="#202124" points="260.51,-43.02 137.49,-43.02 137.49,0 260.51,0 260.51,-43.02"/>
<text xml:space="preserve" text-anchor="middle" x="199" y="-29.18" font-family="DejaVu Sans" font-size="8.50" fill="#202124">Strict accuracy</text>
<text xml:space="preserve" text-anchor="middle" x="199" y="-18.68" font-family="DejaVu Sans" font-size="8.50" fill="#202124">HR@10, NDCG@10,</text>
<text xml:space="preserve" text-anchor="middle" x="199" y="-8.18" font-family="DejaVu Sans" font-size="8.50" fill="#202124">Precision@10, Recall@10</text>
</g>
<!-- endpoints -->
<g id="node12" class="node">
<title>endpoints</title>
<polygon fill="white" stroke="#202124" points="390.51,-39.51 279.49,-39.51 279.49,-3.51 390.51,-3.51 390.51,-39.51"/>
<text xml:space="preserve" text-anchor="middle" x="335" y="-23.93" font-family="DejaVu Sans" font-size="8.50" fill="#202124">Explanation endpoints</text>
<text xml:space="preserve" text-anchor="middle" x="335" y="-13.43" font-family="DejaVu Sans" font-size="8.50" fill="#202124">LIR, SEP, ETD</text>
</g>
<!-- sweeps -->
<g id="node13" class="node">
<title>sweeps</title>
<polygon fill="white" stroke="#202124" points="530.76,-39.51 409.24,-39.51 409.24,-3.51 530.76,-3.51 530.76,-39.51"/>
<text xml:space="preserve" text-anchor="middle" x="470" y="-23.93" font-family="DejaVu Sans" font-size="8.50" fill="#202124">Objective&#45;specific</text>
<text xml:space="preserve" text-anchor="middle" x="470" y="-13.43" font-family="DejaVu Sans" font-size="8.50" fill="#202124">alpha&#45;sweep trajectories</text>
</g>
<!-- ablation -->
<g id="node14" class="node">
<title>ablation</title>
<polygon fill="white" stroke="#202124" points="642.14,-39.51 549.86,-39.51 549.86,-3.51 642.14,-3.51 642.14,-39.51"/>
<text xml:space="preserve" text-anchor="middle" x="596" y="-23.93" font-family="DejaVu Sans" font-size="8.50" fill="#202124">PGPR/UCPR</text>
<text xml:space="preserve" text-anchor="middle" x="596" y="-13.43" font-family="DejaVu Sans" font-size="8.50" fill="#202124">ablation evidence</text>
</g>
<!-- chapter5 -->
<g id="node15" class="node">
<title>chapter5</title>
<polygon fill="#fff4df" stroke="#9a6500" points="756.64,-39.51 661.36,-39.51 661.36,-3.51 756.64,-3.51 756.64,-39.51"/>
<text xml:space="preserve" text-anchor="middle" x="709" y="-23.93" font-family="DejaVu Sans" font-size="8.50" fill="#202124">Chapter 5</text>
<text xml:space="preserve" text-anchor="middle" x="709" y="-13.43" font-family="DejaVu Sans" font-size="8.50" fill="#202124">boundary analysis</text>
</g>
</g>
</svg>
