<?xml version="1.0" encoding="UTF-8" standalone="no"?>
<!DOCTYPE svg PUBLIC "-//W3C//DTD SVG 1.1//EN"
 "http://www.w3.org/Graphics/SVG/1.1/DTD/svg11.dtd">
<!-- Generated by graphviz version 14.1.2 (20260126.1125)
 -->
<!-- Title: evidence_streams Pages: 1 -->
<svg width="591pt" height="300pt"
 viewBox="0.00 0.00 591.00 300.00" xmlns="http://www.w3.org/2000/svg" xmlns:xlink="http://www.w3.org/1999/xlink">
<g id="graph0" class="graph" transform="scale(1 1) rotate(0) translate(5.76 294.51)">
<title>evidence_streams</title>
<polygon fill="white" stroke="none" points="-5.76,5.76 -5.76,-294.51 584.76,-294.51 584.76,5.76 -5.76,5.76"/>
<g id="clust1" class="cluster">
<title>cluster_strict</title>
<path fill="white" stroke="#7aa7bf" stroke-width="0.9" d="M24,-209.5C24,-209.5 386,-209.5 386,-209.5 392,-209.5 398,-215.5 398,-221.5 398,-221.5 398,-268.75 398,-268.75 398,-274.75 392,-280.75 386,-280.75 386,-280.75 24,-280.75 24,-280.75 18,-280.75 12,-274.75 12,-268.75 12,-268.75 12,-221.5 12,-221.5 12,-215.5 18,-209.5 24,-209.5"/>
<text xml:space="preserve" text-anchor="middle" x="205" y="-268.2" font-family="DejaVu Sans" font-size="9.00">Strict accuracy stream</text>
</g>
<g id="clust3" class="cluster">
<title>cluster_sweep</title>
<path fill="white" stroke="#7aa7bf" stroke-width="0.9" d="M20,-130.25C20,-130.25 559,-130.25 559,-130.25 565,-130.25 571,-136.25 571,-142.25 571,-142.25 571,-189.5 571,-189.5 571,-195.5 565,-201.5 559,-201.5 559,-201.5 20,-201.5 20,-201.5 14,-201.5 8,-195.5 8,-189.5 8,-189.5 8,-142.25 8,-142.25 8,-136.25 14,-130.25 20,-130.25"/>
<text xml:space="preserve" text-anchor="middle" x="289.5" y="-188.95" font-family="DejaVu Sans" font-size="9.00">Objective&#45;specific alpha&#45;sweep stream</text>
</g>
<g id="clust5" class="cluster">
<title>cluster_ablation</title>
<path fill="white" stroke="#b08a4d" stroke-width="0.9" d="M43,-51C43,-51 385,-51 385,-51 391,-51 397,-57 397,-63 397,-63 397,-110.25 397,-110.25 397,-116.25 391,-122.25 385,-122.25 385,-122.25 43,-122.25 43,-122.25 37,-122.25 31,-116.25 31,-110.25 31,-110.25 31,-63 31,-63 31,-57 37,-51 43,-51"/>
<text xml:space="preserve" text-anchor="middle" x="214" y="-109.7" font-family="DejaVu Sans" font-size="9.00">Registered ablation stream</text>
</g>
<!-- s1&#45;&gt;s2 -->
<g id="edge1" class="edge">
<title>s1&#45;&gt;s2</title>
<path fill="none" stroke="#202124" d="M138.67,-235.5C141.97,-235.5 145.62,-235.5 149.27,-235.5"/>
<polygon fill="#202124" stroke="#202124" points="149.08,-237.78 155.58,-235.5 149.08,-233.23 149.08,-237.78"/>
</g>
<!-- s1&#45;&gt;a1 -->
<!-- s2&#45;&gt;s3 -->
<g id="edge2" class="edge">
<title>s2&#45;&gt;s3</title>
<path fill="none" stroke="#202124" d="M280.52,-235.5C284.35,-235.5 288.24,-235.5 291.68,-235.5"/>
<polygon fill="#202124" stroke="#202124" points="291.4,-237.78 297.9,-235.5 291.4,-233.23 291.4,-237.78"/>
</g>
<!-- a1&#45;&gt;a2 -->
<g id="edge3" class="edge">
<title>a1&#45;&gt;a2</title>
<path fill="none" stroke="#202124" d="M142.4,-156.25C145.61,-156.25 149.15,-156.25 152.72,-156.25"/>
<polygon fill="#202124" stroke="#202124" points="152.47,-158.53 158.97,-156.25 152.47,-153.98 152.47,-158.53"/>
</g>
<!-- a1&#45;&gt;b1 -->
<!-- a2&#45;&gt;a3 -->
<g id="edge4" class="edge">
<title>a2&#45;&gt;a3</title>
<path fill="none" stroke="#202124" d="M297.55,-156.25C300.86,-156.25 304.31,-156.25 307.65,-156.25"/>
<polygon fill="#202124" stroke="#202124" points="307.54,-158.53 314.04,-156.25 307.54,-153.98 307.54,-158.53"/>
</g>
<!-- a3&#45;&gt;a4 -->
<g id="edge5" class="edge">
<title>a3&#45;&gt;a4</title>
<path fill="none" stroke="#202124" d="M438.6,-156.25C442.11,-156.25 445.79,-156.25 449.27,-156.25"/>
<polygon fill="#202124" stroke="#202124" points="449.27,-158.53 455.77,-156.25 449.27,-153.98 449.27,-158.53"/>
</g>
<!-- b1&#45;&gt;b2 -->
<g id="edge6" class="edge">
<title>b1&#45;&gt;b2</title>
<path fill="none" stroke="#202124" d="M119.11,-77C119.89,-77 124.48,-77 130.3,-77"/>
<polygon fill="#202124" stroke="#202124" points="130.11,-79.28 136.61,-77 130.11,-74.73 130.11,-79.28"/>
</g>
<!-- b2&#45;&gt;b3 -->
<g id="edge7" class="edge">
<title>b2&#45;&gt;b3</title>
<path fill="none" stroke="#202124" d="M260.25,-77C263.76,-77 267.49,-77 271.06,-77"/>
<polygon fill="#202124" stroke="#202124" points="270.92,-79.28 277.42,-77 270.92,-74.73 270.92,-79.28"/>
</g>
<!-- b2&#45;&gt;separation -->
<g id="edge10" class="edge">
<title>b2&#45;&gt;separation</title>
<path fill="none" stroke="#5f6368" stroke-dasharray="5,2" d="M199,-58.59C199,-51.52 199,-43.37 199,-36.3"/>
</g>
<!-- s1 -->
<g id="node1" class="node">
<title>s1</title>
<polygon fill="#eaf3f8" stroke="#202124" points="138.26,-253.5 19.73,-253.5 19.73,-217.5 138.26,-217.5 138.26,-253.5"/>
<text xml:space="preserve" text-anchor="middle" x="79" y="-237.93" font-family="DejaVu Sans" font-size="8.50" fill="#202124">Validated baseline</text>
<text xml:space="preserve" text-anchor="middle" x="79" y="-227.43" font-family="DejaVu Sans" font-size="8.50" fill="#202124">recommendation output</text>
</g>
<!-- s2 -->
<g id="node2" class="node">
<title>s2</title>
<polygon fill="white" stroke="#202124" points="280.51,-253.5 157.49,-253.5 157.49,-217.5 280.51,-217.5 280.51,-253.5"/>
<text xml:space="preserve" text-anchor="middle" x="219" y="-237.93" font-family="DejaVu Sans" font-size="8.50" fill="#202124">HR@10, NDCG@10,</text>
<text xml:space="preserve" text-anchor="middle" x="219" y="-227.43" font-family="DejaVu Sans" font-size="8.50" fill="#202124">Precision@10, Recall@10</text>
</g>
<!-- s3 -->
<g id="node3" class="node">
<title>s3</title>
<polygon fill="#eaf3f8" stroke="#202124" points="390.39,-253.5 299.61,-253.5 299.61,-217.5 390.39,-217.5 390.39,-253.5"/>
<text xml:space="preserve" text-anchor="middle" x="345" y="-237.93" font-family="DejaVu Sans" font-size="8.50" fill="#202124">Chapter 4</text>
<text xml:space="preserve" text-anchor="middle" x="345" y="-227.43" font-family="DejaVu Sans" font-size="8.50" fill="#202124">strict comparison</text>
</g>
<!-- a1 -->
<g id="node4" class="node">
<title>a1</title>
<polygon fill="white" stroke="#202124" points="142.01,-174.25 15.98,-174.25 15.98,-138.25 142.01,-138.25 142.01,-174.25"/>
<text xml:space="preserve" text-anchor="middle" x="79" y="-158.68" font-family="DejaVu Sans" font-size="8.50" fill="#202124">alpha=0</text>
<text xml:space="preserve" text-anchor="middle" x="79" y="-148.18" font-family="DejaVu Sans" font-size="8.50" fill="#202124">ranking&#45;oriented baseline</text>
</g>
<!-- a2 -->
<g id="node5" class="node">
<title>a2</title>
<polygon fill="white" stroke="#202124" points="297.26,-174.25 160.74,-174.25 160.74,-138.25 297.26,-138.25 297.26,-174.25"/>
<text xml:space="preserve" text-anchor="middle" x="229" y="-158.68" font-family="DejaVu Sans" font-size="8.50" fill="#202124">alpha in [0, 1]</text>
<text xml:space="preserve" text-anchor="middle" x="229" y="-148.18" font-family="DejaVu Sans" font-size="8.50" fill="#202124">objective&#45;specific re&#45;ranking</text>
</g>
<!-- a3 -->
<g id="node6" class="node">
<title>a3</title>
<polygon fill="white" stroke="#202124" points="438.14,-174.25 315.86,-174.25 315.86,-138.25 438.14,-138.25 438.14,-174.25"/>
<text xml:space="preserve" text-anchor="middle" x="377" y="-158.68" font-family="DejaVu Sans" font-size="8.50" fill="#202124">LIR, SEP, or ETD</text>
<text xml:space="preserve" text-anchor="middle" x="377" y="-148.18" font-family="DejaVu Sans" font-size="8.50" fill="#202124">paired with sweep NDCG</text>
</g>
<!-- a4 -->
<g id="node7" class="node">
<title>a4</title>
<polygon fill="#eaf3f8" stroke="#202124" points="562.51,-174.25 457.49,-174.25 457.49,-138.25 562.51,-138.25 562.51,-174.25"/>
<text xml:space="preserve" text-anchor="middle" x="510" y="-158.68" font-family="DejaVu Sans" font-size="8.50" fill="#202124">Chapter 4</text>
<text xml:space="preserve" text-anchor="middle" x="510" y="-148.18" font-family="DejaVu Sans" font-size="8.50" fill="#202124">trade&#45;off trajectories</text>
</g>
<!-- b1 -->
<g id="node8" class="node">
<title>b1</title>
<polygon fill="#fff4df" stroke="#202124" points="118.77,-95 39.23,-95 39.23,-59 118.77,-59 118.77,-95"/>
<text xml:space="preserve" text-anchor="middle" x="79" y="-79.42" font-family="DejaVu Sans" font-size="8.50" fill="#202124">Frozen original</text>
<text xml:space="preserve" text-anchor="middle" x="79" y="-68.92" font-family="DejaVu Sans" font-size="8.50" fill="#202124">top&#45;k item set</text>
</g>
<!-- b2 -->
<g id="node9" class="node">
<title>b2</title>
<polygon fill="white" stroke="#202124" points="259.76,-95 138.24,-95 138.24,-59 259.76,-59 259.76,-95"/>
<text xml:space="preserve" text-anchor="middle" x="199" y="-79.42" font-family="DejaVu Sans" font-size="8.50" fill="#202124">PGPR/UCPR only</text>
<text xml:space="preserve" text-anchor="middle" x="199" y="-68.92" font-family="DejaVu Sans" font-size="8.50" fill="#202124">objective&#45;specific control</text>
</g>
<!-- b3 -->
<g id="node10" class="node">
<title>b3</title>
<polygon fill="#fff4df" stroke="#202124" points="388.76,-95 279.24,-95 279.24,-59 388.76,-59 388.76,-95"/>
<text xml:space="preserve" text-anchor="middle" x="334" y="-79.42" font-family="DejaVu Sans" font-size="8.50" fill="#202124">Baseline preservation</text>
<text xml:space="preserve" text-anchor="middle" x="334" y="-68.92" font-family="DejaVu Sans" font-size="8.50" fill="#202124">and NDCG retention</text>
</g>
<!-- separation -->
<g id="node11" class="node">
<title>separation</title>
<polygon fill="#f5f6f7" stroke="#5f6368" points="379.39,-36 12.61,-36 12.61,0 385.39,0 385.39,-30 379.39,-36"/>
<polyline fill="none" stroke="#5f6368" points="379.39,-36 379.39,-30"/>
<polyline fill="none" stroke="#5f6368" points="385.39,-30 379.39,-30"/>
<text xml:space="preserve" text-anchor="middle" x="199" y="-15.18" font-family="DejaVu Sans" font-size="8.50" fill="#202124">Sweep NDCG is not strict NDCG@10; ablation remains a separate evidence stream.</text>
</g>
</g>
</svg>
