<svg xmlns="http://www.w3.org/2000/svg" width="1180" height="480" viewBox="0 0 1180 480">
<rect width="100%" height="100%" fill="#ffffff"/>
<text x="32" y="36" font-family="Arial, sans-serif" font-size="22" font-weight="700" fill="#212121">LastFM: Performance-explainability tradeoff</text>
<text x="32" y="60" font-family="Arial, sans-serif" font-size="13" fill="#555">Y axis: strict canonical NDCG retention vs Original. X axis: optimized explanation gain. Markers show alpha=0 and alpha=1.</text>
<text x="32" y="76" font-family="Arial, sans-serif" font-size="12" fill="#777">LastFM legacy sweep NDCG is excluded; this figure uses the strict canonical baseline-preserving protocol.</text>
<rect x="72.00" y="96" width="323.33" height="285" fill="#fafafa" stroke="#dddddd"/>
<text x="233.67" y="78" font-family="Arial, sans-serif" font-size="16" font-weight="700" text-anchor="middle" fill="#212121">LIR</text>
<line x1="72.00" y1="96" x2="72.00" y2="381" stroke="#e6e6e6" stroke-width="1"/>
<line x1="72.00" y1="96.00" x2="395.33" y2="96.00" stroke="#e6e6e6" stroke-width="1"/>
<line x1="152.83" y1="96" x2="152.83" y2="381" stroke="#e6e6e6" stroke-width="1"/>
<line x1="72.00" y1="167.25" x2="395.33" y2="167.25" stroke="#e6e6e6" stroke-width="1"/>
<line x1="233.67" y1="96" x2="233.67" y2="381" stroke="#e6e6e6" stroke-width="1"/>
<line x1="72.00" y1="238.50" x2="395.33" y2="238.50" stroke="#e6e6e6" stroke-width="1"/>
<line x1="314.50" y1="96" x2="314.50" y2="381" stroke="#e6e6e6" stroke-width="1"/>
<line x1="72.00" y1="309.75" x2="395.33" y2="309.75" stroke="#e6e6e6" stroke-width="1"/>
<line x1="395.33" y1="96" x2="395.33" y2="381" stroke="#e6e6e6" stroke-width="1"/>
<line x1="72.00" y1="381.00" x2="395.33" y2="381.00" stroke="#e6e6e6" stroke-width="1"/>
<line x1="72.00" y1="360.64" x2="395.33" y2="360.64" stroke="#777" stroke-width="1.2" stroke-dasharray="5 4"/>
<text x="391.33" y="355.64" font-family="Arial, sans-serif" font-size="11" text-anchor="end" fill="#555">95%</text>
<polyline points="94.30,157.07 373.03,157.07 373.03,157.93 373.03,157.28 373.03,157.53 373.03,157.95 373.03,158.81 373.03,159.56 373.03,160.84 373.03,158.64 373.03,157.38 373.03,157.58 373.03,158.26 373.03,158.25 373.03,157.51 373.03,158.14 373.03,158.09 373.03,158.43 373.03,158.78 373.03,158.55 373.03,159.42" fill="none" stroke="#1565C0" stroke-width="2.4" stroke-linejoin="round" stroke-linecap="round"/>
<circle cx="94.30" cy="157.07" r="4.6" fill="#1565C0" stroke="#fff" stroke-width="1.4"/>
<rect x="368.23" y="154.62" width="9.6" height="9.6" fill="#1565C0" stroke="#fff" stroke-width="1.4"/>
<polyline points="94.30,157.07 163.55,157.07 163.55,157.02 163.55,157.11 163.55,157.23 163.55,157.20 163.55,156.47 163.55,156.69 163.55,156.62 163.55,156.26 163.55,156.83 163.55,157.01 163.55,158.30 163.55,158.34 163.55,158.45 163.55,159.01 163.55,158.96 163.55,158.96 163.55,158.99 163.55,158.78 163.55,158.78" fill="none" stroke="#C62828" stroke-width="2.4" stroke-linejoin="round" stroke-linecap="round"/>
<circle cx="94.30" cy="157.07" r="4.6" fill="#C62828" stroke="#fff" stroke-width="1.4"/>
<rect x="158.75" y="153.98" width="9.6" height="9.6" fill="#C62828" stroke="#fff" stroke-width="1.4"/>
<text x="72.00" y="409" font-family="Arial, sans-serif" font-size="12" fill="#444">-40.2%</text>
<text x="395.33" y="409" font-family="Arial, sans-serif" font-size="12" text-anchor="end" fill="#444">542%</text>
<text x="233.67" y="425" font-family="Arial, sans-serif" font-size="12" text-anchor="middle" fill="#444">LIR gain (%)</text>
<text x="62.00" y="381.00" font-family="Arial, sans-serif" font-size="12" text-anchor="end" fill="#444">94.5%</text>
<text x="62.00" y="100.00" font-family="Arial, sans-serif" font-size="12" text-anchor="end" fill="#444">102%</text>
<text x="22" y="238.50" font-family="Arial, sans-serif" font-size="13" text-anchor="middle" fill="#444" transform="rotate(-90 22 238.50)">NDCG retention (%)</text>
<rect x="443.33" y="96" width="323.33" height="285" fill="#fafafa" stroke="#dddddd"/>
<text x="605.00" y="78" font-family="Arial, sans-serif" font-size="16" font-weight="700" text-anchor="middle" fill="#212121">SEP</text>
<line x1="443.33" y1="96" x2="443.33" y2="381" stroke="#e6e6e6" stroke-width="1"/>
<line x1="443.33" y1="96.00" x2="766.67" y2="96.00" stroke="#e6e6e6" stroke-width="1"/>
<line x1="524.17" y1="96" x2="524.17" y2="381" stroke="#e6e6e6" stroke-width="1"/>
<line x1="443.33" y1="167.25" x2="766.67" y2="167.25" stroke="#e6e6e6" stroke-width="1"/>
<line x1="605.00" y1="96" x2="605.00" y2="381" stroke="#e6e6e6" stroke-width="1"/>
<line x1="443.33" y1="238.50" x2="766.67" y2="238.50" stroke="#e6e6e6" stroke-width="1"/>
<line x1="685.83" y1="96" x2="685.83" y2="381" stroke="#e6e6e6" stroke-width="1"/>
<line x1="443.33" y1="309.75" x2="766.67" y2="309.75" stroke="#e6e6e6" stroke-width="1"/>
<line x1="766.67" y1="96" x2="766.67" y2="381" stroke="#e6e6e6" stroke-width="1"/>
<line x1="443.33" y1="381.00" x2="766.67" y2="381.00" stroke="#e6e6e6" stroke-width="1"/>
<line x1="443.33" y1="245.79" x2="766.67" y2="245.79" stroke="#777" stroke-width="1.2" stroke-dasharray="5 4"/>
<text x="762.67" y="240.79" font-family="Arial, sans-serif" font-size="11" text-anchor="end" fill="#555">95%</text>
<polyline points="465.63,141.57 703.41,141.57 703.41,150.27 703.41,150.94 703.41,158.24 703.41,157.10 703.41,160.10 703.41,154.98 703.41,173.70 703.41,184.04 703.41,191.08 703.41,199.05 703.41,208.60 703.41,219.77 703.41,228.87 703.41,243.17 703.41,259.30 703.41,274.91 703.41,290.08 703.41,311.55 703.41,361.34" fill="none" stroke="#1565C0" stroke-width="2.4" stroke-linejoin="round" stroke-linecap="round"/>
<circle cx="465.63" cy="141.57" r="4.6" fill="#1565C0" stroke="#fff" stroke-width="1.4"/>
<rect x="698.61" y="356.54" width="9.6" height="9.6" fill="#1565C0" stroke="#fff" stroke-width="1.4"/>
<polyline points="465.63,141.57 744.37,141.57 744.37,141.18 744.37,141.19 744.37,141.16 744.37,136.88 744.37,133.30 744.37,132.11 744.37,125.77 744.37,124.51 744.37,122.53 744.37,123.47 744.37,119.30 744.37,121.04 744.37,119.82 744.37,115.66 744.37,120.12 744.37,121.31 744.37,118.61 744.37,127.47 744.37,154.87" fill="none" stroke="#C62828" stroke-width="2.4" stroke-linejoin="round" stroke-linecap="round"/>
<circle cx="465.63" cy="141.57" r="4.6" fill="#C62828" stroke="#fff" stroke-width="1.4"/>
<rect x="739.57" y="150.07" width="9.6" height="9.6" fill="#C62828" stroke="#fff" stroke-width="1.4"/>
<text x="443.33" y="409" font-family="Arial, sans-serif" font-size="12" fill="#444">-3.29%</text>
<text x="766.67" y="409" font-family="Arial, sans-serif" font-size="12" text-anchor="end" fill="#444">44.4%</text>
<text x="605.00" y="425" font-family="Arial, sans-serif" font-size="12" text-anchor="middle" fill="#444">SEP gain (%)</text>
<text x="433.33" y="381.00" font-family="Arial, sans-serif" font-size="12" text-anchor="end" fill="#444">88.5%</text>
<text x="433.33" y="100.00" font-family="Arial, sans-serif" font-size="12" text-anchor="end" fill="#444">102%</text>
<rect x="814.67" y="96" width="323.33" height="285" fill="#fafafa" stroke="#dddddd"/>
<text x="976.33" y="78" font-family="Arial, sans-serif" font-size="16" font-weight="700" text-anchor="middle" fill="#212121">ETD</text>
<line x1="814.67" y1="96" x2="814.67" y2="381" stroke="#e6e6e6" stroke-width="1"/>
<line x1="814.67" y1="96.00" x2="1138.00" y2="96.00" stroke="#e6e6e6" stroke-width="1"/>
<line x1="895.50" y1="96" x2="895.50" y2="381" stroke="#e6e6e6" stroke-width="1"/>
<line x1="814.67" y1="167.25" x2="1138.00" y2="167.25" stroke="#e6e6e6" stroke-width="1"/>
<line x1="976.33" y1="96" x2="976.33" y2="381" stroke="#e6e6e6" stroke-width="1"/>
<line x1="814.67" y1="238.50" x2="1138.00" y2="238.50" stroke="#e6e6e6" stroke-width="1"/>
<line x1="1057.17" y1="96" x2="1057.17" y2="381" stroke="#e6e6e6" stroke-width="1"/>
<line x1="814.67" y1="309.75" x2="1138.00" y2="309.75" stroke="#e6e6e6" stroke-width="1"/>
<line x1="1138.00" y1="96" x2="1138.00" y2="381" stroke="#e6e6e6" stroke-width="1"/>
<line x1="814.67" y1="381.00" x2="1138.00" y2="381.00" stroke="#e6e6e6" stroke-width="1"/>
<line x1="814.67" y1="360.64" x2="1138.00" y2="360.64" stroke="#777" stroke-width="1.2" stroke-dasharray="5 4"/>
<text x="1134.00" y="355.64" font-family="Arial, sans-serif" font-size="11" text-anchor="end" fill="#555">95%</text>
<polyline points="836.97,157.07 892.52,157.07 892.52,159.66 892.52,159.66 892.52,169.72 892.52,179.39 892.52,184.38 892.52,190.71 892.52,196.68 892.52,203.69 892.52,203.69 892.52,203.69 892.52,203.69 892.52,203.69 892.52,203.69 892.52,203.69 892.52,203.69 892.52,203.69 892.52,203.69 892.52,203.69 892.52,203.69" fill="none" stroke="#1565C0" stroke-width="2.4" stroke-linejoin="round" stroke-linecap="round"/>
<circle cx="836.97" cy="157.07" r="4.6" fill="#1565C0" stroke="#fff" stroke-width="1.4"/>
<rect x="887.72" y="198.89" width="9.6" height="9.6" fill="#1565C0" stroke="#fff" stroke-width="1.4"/>
<polyline points="836.97,157.07 1115.70,157.07 1115.70,157.95 1115.70,157.95 1115.70,159.95 1115.70,159.67 1115.70,160.43 1115.70,159.10 1115.70,159.11 1115.70,161.07 1115.70,161.07 1115.70,161.07 1115.70,161.07 1115.70,161.07 1115.70,161.07 1115.70,161.07 1115.70,161.07 1115.70,161.07 1115.70,161.07 1115.70,161.07 1115.70,161.07" fill="none" stroke="#C62828" stroke-width="2.4" stroke-linejoin="round" stroke-linecap="round"/>
<circle cx="836.97" cy="157.07" r="4.6" fill="#C62828" stroke="#fff" stroke-width="1.4"/>
<rect x="1110.90" y="156.27" width="9.6" height="9.6" fill="#C62828" stroke="#fff" stroke-width="1.4"/>
<text x="814.67" y="409" font-family="Arial, sans-serif" font-size="12" fill="#444">-1.39%</text>
<text x="1138.00" y="409" font-family="Arial, sans-serif" font-size="12" text-anchor="end" fill="#444">18.8%</text>
<text x="976.33" y="425" font-family="Arial, sans-serif" font-size="12" text-anchor="middle" fill="#444">ETD gain (%)</text>
<text x="804.67" y="381.00" font-family="Arial, sans-serif" font-size="12" text-anchor="end" fill="#444">94.5%</text>
<text x="804.67" y="100.00" font-family="Arial, sans-serif" font-size="12" text-anchor="end" fill="#444">102%</text>
<line x1="430" y1="452" x2="456" y2="452" stroke="#1565C0" stroke-width="2.6"/>
<circle cx="443" cy="452" r="4" fill="#1565C0" stroke="#fff" stroke-width="1"/>
<text x="464" y="456" font-family="Arial, sans-serif" font-size="13" fill="#333">PGPR</text>
<line x1="555" y1="452" x2="581" y2="452" stroke="#C62828" stroke-width="2.6"/>
<circle cx="568" cy="452" r="4" fill="#C62828" stroke="#fff" stroke-width="1"/>
<text x="589" y="456" font-family="Arial, sans-serif" font-size="13" fill="#333">UCPR</text>
<circle cx="695" cy="452" r="4.6" fill="#555" stroke="#fff" stroke-width="1"/>
<text x="706" y="456" font-family="Arial, sans-serif" font-size="13" fill="#333">alpha=0</text>
<rect x="782" y="447.2" width="9.6" height="9.6" fill="#555" stroke="#fff" stroke-width="1"/>
<text x="797" y="456" font-family="Arial, sans-serif" font-size="13" fill="#333">alpha=1</text>
</svg>
