<svg xmlns="http://www.w3.org/2000/svg" width="1180" height="480" viewBox="0 0 1180 480">
<rect width="100%" height="100%" fill="#ffffff"/>
<text x="32" y="36" font-family="Arial, sans-serif" font-size="22" font-weight="700" fill="#212121">ML-1M: Performance-explainability tradeoff</text>
<text x="32" y="60" font-family="Arial, sans-serif" font-size="13" fill="#555">Y axis: strict canonical NDCG retention vs Original. X axis: optimized explanation gain. Markers show alpha=0 and alpha=1.</text>
<rect x="72.00" y="96" width="323.33" height="285" fill="#fafafa" stroke="#dddddd"/>
<text x="233.67" y="78" font-family="Arial, sans-serif" font-size="16" font-weight="700" text-anchor="middle" fill="#212121">LIR</text>
<line x1="72.00" y1="96" x2="72.00" y2="381" stroke="#e6e6e6" stroke-width="1"/>
<line x1="72.00" y1="96.00" x2="395.33" y2="96.00" stroke="#e6e6e6" stroke-width="1"/>
<line x1="152.83" y1="96" x2="152.83" y2="381" stroke="#e6e6e6" stroke-width="1"/>
<line x1="72.00" y1="167.25" x2="395.33" y2="167.25" stroke="#e6e6e6" stroke-width="1"/>
<line x1="233.67" y1="96" x2="233.67" y2="381" stroke="#e6e6e6" stroke-width="1"/>
<line x1="72.00" y1="238.50" x2="395.33" y2="238.50" stroke="#e6e6e6" stroke-width="1"/>
<line x1="314.50" y1="96" x2="314.50" y2="381" stroke="#e6e6e6" stroke-width="1"/>
<line x1="72.00" y1="309.75" x2="395.33" y2="309.75" stroke="#e6e6e6" stroke-width="1"/>
<line x1="395.33" y1="96" x2="395.33" y2="381" stroke="#e6e6e6" stroke-width="1"/>
<line x1="72.00" y1="381.00" x2="395.33" y2="381.00" stroke="#e6e6e6" stroke-width="1"/>
<line x1="72.00" y1="360.64" x2="395.33" y2="360.64" stroke="#777" stroke-width="1.2" stroke-dasharray="5 4"/>
<text x="391.33" y="355.64" font-family="Arial, sans-serif" font-size="11" text-anchor="end" fill="#555">95%</text>
<polyline points="94.30,157.07 373.03,157.07 373.03,158.34 373.03,159.11 373.03,159.88 373.03,156.98 373.03,160.39 373.03,158.89 373.03,171.32 373.03,179.69 373.03,189.20 373.03,194.75 373.03,201.12 373.03,214.98 373.03,221.81 373.03,225.92 373.03,238.86 373.03,259.65 373.03,264.11 373.03,275.23 373.03,287.17" fill="none" stroke="#1565C0" stroke-width="2.4" stroke-linejoin="round" stroke-linecap="round"/>
<circle cx="94.30" cy="157.07" r="4.6" fill="#1565C0" stroke="#fff" stroke-width="1.4"/>
<rect x="368.23" y="282.37" width="9.6" height="9.6" fill="#1565C0" stroke="#fff" stroke-width="1.4"/>
<polyline points="94.30,157.07 314.53,157.07 314.53,155.89 314.53,157.28 314.53,158.42 314.53,160.63 314.53,161.22 314.53,174.40 314.53,178.45 314.53,192.89 314.53,205.23 314.53,218.23 314.53,222.80 314.53,231.94 314.53,246.60 314.53,255.74 314.53,264.67 314.53,266.88 314.53,268.76 314.53,268.79 314.53,272.28" fill="none" stroke="#C62828" stroke-width="2.4" stroke-linejoin="round" stroke-linecap="round"/>
<circle cx="94.30" cy="157.07" r="4.6" fill="#C62828" stroke="#fff" stroke-width="1.4"/>
<rect x="309.73" y="267.48" width="9.6" height="9.6" fill="#C62828" stroke="#fff" stroke-width="1.4"/>
<text x="72.00" y="409" font-family="Arial, sans-serif" font-size="12" fill="#444">-4.50%</text>
<text x="395.33" y="409" font-family="Arial, sans-serif" font-size="12" text-anchor="end" fill="#444">60.8%</text>
<text x="233.67" y="425" font-family="Arial, sans-serif" font-size="12" text-anchor="middle" fill="#444">LIR gain (%)</text>
<text x="62.00" y="381.00" font-family="Arial, sans-serif" font-size="12" text-anchor="end" fill="#444">94.5%</text>
<text x="62.00" y="100.00" font-family="Arial, sans-serif" font-size="12" text-anchor="end" fill="#444">102%</text>
<text x="22" y="238.50" font-family="Arial, sans-serif" font-size="13" text-anchor="middle" fill="#444" transform="rotate(-90 22 238.50)">NDCG retention (%)</text>
<rect x="443.33" y="96" width="323.33" height="285" fill="#fafafa" stroke="#dddddd"/>
<text x="605.00" y="78" font-family="Arial, sans-serif" font-size="16" font-weight="700" text-anchor="middle" fill="#212121">SEP</text>
<line x1="443.33" y1="96" x2="443.33" y2="381" stroke="#e6e6e6" stroke-width="1"/>
<line x1="443.33" y1="96.00" x2="766.67" y2="96.00" stroke="#e6e6e6" stroke-width="1"/>
<line x1="524.17" y1="96" x2="524.17" y2="381" stroke="#e6e6e6" stroke-width="1"/>
<line x1="443.33" y1="167.25" x2="766.67" y2="167.25" stroke="#e6e6e6" stroke-width="1"/>
<line x1="605.00" y1="96" x2="605.00" y2="381" stroke="#e6e6e6" stroke-width="1"/>
<line x1="443.33" y1="238.50" x2="766.67" y2="238.50" stroke="#e6e6e6" stroke-width="1"/>
<line x1="685.83" y1="96" x2="685.83" y2="381" stroke="#e6e6e6" stroke-width="1"/>
<line x1="443.33" y1="309.75" x2="766.67" y2="309.75" stroke="#e6e6e6" stroke-width="1"/>
<line x1="766.67" y1="96" x2="766.67" y2="381" stroke="#e6e6e6" stroke-width="1"/>
<line x1="443.33" y1="381.00" x2="766.67" y2="381.00" stroke="#e6e6e6" stroke-width="1"/>
<line x1="443.33" y1="320.30" x2="766.67" y2="320.30" stroke="#777" stroke-width="1.2" stroke-dasharray="5 4"/>
<text x="762.67" y="315.30" font-family="Arial, sans-serif" font-size="11" text-anchor="end" fill="#555">95%</text>
<polyline points="465.63,149.76 744.37,149.76 744.37,150.73 744.37,151.04 744.37,151.54 744.37,164.39 744.37,172.51 744.37,173.28 744.37,185.03 744.37,189.97 744.37,198.27 744.37,211.87 744.37,214.42 744.37,230.30 744.37,238.92 744.37,246.81 744.37,260.59 744.37,280.21 744.37,297.10 744.37,316.98 744.37,352.67" fill="none" stroke="#1565C0" stroke-width="2.4" stroke-linejoin="round" stroke-linecap="round"/>
<circle cx="465.63" cy="149.76" r="4.6" fill="#1565C0" stroke="#fff" stroke-width="1.4"/>
<rect x="739.57" y="347.87" width="9.6" height="9.6" fill="#1565C0" stroke="#fff" stroke-width="1.4"/>
<polyline points="465.63,149.76 660.67,149.76 660.67,149.61 660.67,145.42 660.67,145.30 660.67,148.63 660.67,160.77 660.67,165.63 660.67,175.99 660.67,188.65 660.67,206.48 660.67,210.93 660.67,225.07 660.67,231.64 660.67,241.65 660.67,254.59 660.67,266.91 660.67,281.59 660.67,302.56 660.67,321.60 660.67,361.34" fill="none" stroke="#C62828" stroke-width="2.4" stroke-linejoin="round" stroke-linecap="round"/>
<circle cx="465.63" cy="149.76" r="4.6" fill="#C62828" stroke="#fff" stroke-width="1.4"/>
<rect x="655.87" y="356.54" width="9.6" height="9.6" fill="#C62828" stroke="#fff" stroke-width="1.4"/>
<text x="443.33" y="409" font-family="Arial, sans-serif" font-size="12" fill="#444">-3.82%</text>
<text x="766.67" y="409" font-family="Arial, sans-serif" font-size="12" text-anchor="end" fill="#444">51.5%</text>
<text x="605.00" y="425" font-family="Arial, sans-serif" font-size="12" text-anchor="middle" fill="#444">SEP gain (%)</text>
<text x="433.33" y="381.00" font-family="Arial, sans-serif" font-size="12" text-anchor="end" fill="#444">93.2%</text>
<text x="433.33" y="100.00" font-family="Arial, sans-serif" font-size="12" text-anchor="end" fill="#444">102%</text>
<rect x="814.67" y="96" width="323.33" height="285" fill="#fafafa" stroke="#dddddd"/>
<text x="976.33" y="78" font-family="Arial, sans-serif" font-size="16" font-weight="700" text-anchor="middle" fill="#212121">ETD</text>
<line x1="814.67" y1="96" x2="814.67" y2="381" stroke="#e6e6e6" stroke-width="1"/>
<line x1="814.67" y1="96.00" x2="1138.00" y2="96.00" stroke="#e6e6e6" stroke-width="1"/>
<line x1="895.50" y1="96" x2="895.50" y2="381" stroke="#e6e6e6" stroke-width="1"/>
<line x1="814.67" y1="167.25" x2="1138.00" y2="167.25" stroke="#e6e6e6" stroke-width="1"/>
<line x1="976.33" y1="96" x2="976.33" y2="381" stroke="#e6e6e6" stroke-width="1"/>
<line x1="814.67" y1="238.50" x2="1138.00" y2="238.50" stroke="#e6e6e6" stroke-width="1"/>
<line x1="1057.17" y1="96" x2="1057.17" y2="381" stroke="#e6e6e6" stroke-width="1"/>
<line x1="814.67" y1="309.75" x2="1138.00" y2="309.75" stroke="#e6e6e6" stroke-width="1"/>
<line x1="1138.00" y1="96" x2="1138.00" y2="381" stroke="#e6e6e6" stroke-width="1"/>
<line x1="814.67" y1="381.00" x2="1138.00" y2="381.00" stroke="#e6e6e6" stroke-width="1"/>
<line x1="814.67" y1="360.64" x2="1138.00" y2="360.64" stroke="#777" stroke-width="1.2" stroke-dasharray="5 4"/>
<text x="1134.00" y="355.64" font-family="Arial, sans-serif" font-size="11" text-anchor="end" fill="#555">95%</text>
<polyline points="836.97,157.07 1115.70,157.07 1115.70,160.31 1115.70,160.31 1115.70,166.48 1115.70,169.28 1115.70,171.85 1115.70,175.31 1115.70,176.26 1115.70,182.48 1115.70,182.48 1115.70,182.48 1115.70,182.48 1115.70,182.48 1115.70,182.48 1115.70,182.48 1115.70,182.48 1115.70,182.48 1115.70,182.48 1115.70,182.48 1115.70,182.48" fill="none" stroke="#1565C0" stroke-width="2.4" stroke-linejoin="round" stroke-linecap="round"/>
<circle cx="836.97" cy="157.07" r="4.6" fill="#1565C0" stroke="#fff" stroke-width="1.4"/>
<rect x="1110.90" y="177.68" width="9.6" height="9.6" fill="#1565C0" stroke="#fff" stroke-width="1.4"/>
<polyline points="836.97,157.07 944.92,157.07 944.92,164.55 944.92,166.47 944.92,178.12 944.92,189.00 944.92,195.84 944.92,203.04 944.92,207.30 944.92,211.72 944.92,211.72 944.92,211.72 944.92,211.72 944.92,211.72 944.92,211.72 944.92,211.72 944.92,211.72 944.92,211.72 944.92,211.72 944.92,211.72 944.92,211.72" fill="none" stroke="#C62828" stroke-width="2.4" stroke-linejoin="round" stroke-linecap="round"/>
<circle cx="836.97" cy="157.07" r="4.6" fill="#C62828" stroke="#fff" stroke-width="1.4"/>
<rect x="940.12" y="206.92" width="9.6" height="9.6" fill="#C62828" stroke="#fff" stroke-width="1.4"/>
<text x="814.67" y="409" font-family="Arial, sans-serif" font-size="12" fill="#444">-1.22%</text>
<text x="1138.00" y="409" font-family="Arial, sans-serif" font-size="12" text-anchor="end" fill="#444">16.5%</text>
<text x="976.33" y="425" font-family="Arial, sans-serif" font-size="12" text-anchor="middle" fill="#444">ETD gain (%)</text>
<text x="804.67" y="381.00" font-family="Arial, sans-serif" font-size="12" text-anchor="end" fill="#444">94.5%</text>
<text x="804.67" y="100.00" font-family="Arial, sans-serif" font-size="12" text-anchor="end" fill="#444">102%</text>
<line x1="430" y1="452" x2="456" y2="452" stroke="#1565C0" stroke-width="2.6"/>
<circle cx="443" cy="452" r="4" fill="#1565C0" stroke="#fff" stroke-width="1"/>
<text x="464" y="456" font-family="Arial, sans-serif" font-size="13" fill="#333">PGPR</text>
<line x1="555" y1="452" x2="581" y2="452" stroke="#C62828" stroke-width="2.6"/>
<circle cx="568" cy="452" r="4" fill="#C62828" stroke="#fff" stroke-width="1"/>
<text x="589" y="456" font-family="Arial, sans-serif" font-size="13" fill="#333">UCPR</text>
<circle cx="695" cy="452" r="4.6" fill="#555" stroke="#fff" stroke-width="1"/>
<text x="706" y="456" font-family="Arial, sans-serif" font-size="13" fill="#333">alpha=0</text>
<rect x="782" y="447.2" width="9.6" height="9.6" fill="#555" stroke="#fff" stroke-width="1"/>
<text x="797" y="456" font-family="Arial, sans-serif" font-size="13" fill="#333">alpha=1</text>
</svg>
