<svg xmlns="http://www.w3.org/2000/svg" width="1600" height="860" viewBox="0 0 1600 860">
<rect width="100%" height="100%" fill="#FFFFFF"/>
<line x1="260.00" y1="55.00" x2="291.00" y2="55.00" stroke="#0072B2" stroke-width="3"/>
<circle cx="275.00" cy="55.00" r="5.00" fill="#0072B2" stroke="#0072B2" stroke-width="1.5"/>
<text x="301.00" y="61.00" font-family="DejaVu Sans, Arial, sans-serif" font-size="14" font-weight="400" fill="#20242A" text-anchor="start">PGPR</text>
<line x1="440.00" y1="55.00" x2="471.00" y2="55.00" stroke="#D55E00" stroke-width="3" stroke-dasharray="9 4"/>
<rect x="450.00" y="50.00" width="10.00" height="10.00" rx="0" fill="#D55E00" stroke="#D55E00" stroke-width="1.5"/>
<text x="481.00" y="61.00" font-family="DejaVu Sans, Arial, sans-serif" font-size="14" font-weight="400" fill="#20242A" text-anchor="start">UCPR</text>
<line x1="620.00" y1="55.00" x2="651.00" y2="55.00" stroke="#009E73" stroke-width="3" stroke-dasharray="3 3"/>
<polygon points="635.00,49.00 630.00,60.00 640.00,60.00" fill="#009E73" stroke="#009E73" stroke-width="1.5"/>
<text x="661.00" y="61.00" font-family="DejaVu Sans, Arial, sans-serif" font-size="14" font-weight="400" fill="#20242A" text-anchor="start">CAFE</text>
<line x1="800.00" y1="55.00" x2="831.00" y2="55.00" stroke="#7A5195" stroke-width="3" stroke-dasharray="11 3 2 3"/>
<polygon points="815.00,49.00 810.00,55.00 815.00,61.00 820.00,55.00" fill="#7A5195" stroke="#7A5195" stroke-width="1.5"/>
<text x="841.00" y="61.00" font-family="DejaVu Sans, Arial, sans-serif" font-size="14" font-weight="400" fill="#20242A" text-anchor="start">TPRec</text>
<line x1="980.00" y1="55.00" x2="1011.00" y2="55.00" stroke="#333333" stroke-width="3" stroke-dasharray="2 5"/>
<line x1="990.00" y1="55.00" x2="1000.00" y2="55.00" stroke="#333333" stroke-width="2"/>
<line x1="995.00" y1="50.00" x2="995.00" y2="60.00" stroke="#333333" stroke-width="2"/>
<text x="1021.00" y="61.00" font-family="DejaVu Sans, Arial, sans-serif" font-size="14" font-weight="400" fill="#20242A" text-anchor="start">KGGLM</text>
<line x1="1160.00" y1="55.00" x2="1191.00" y2="55.00" stroke="#E69F00" stroke-width="3" stroke-dasharray="7 3 2 3"/>
<line x1="1170.00" y1="50.00" x2="1180.00" y2="60.00" stroke="#E69F00" stroke-width="2"/>
<line x1="1170.00" y1="60.00" x2="1180.00" y2="50.00" stroke="#E69F00" stroke-width="2"/>
<text x="1201.00" y="61.00" font-family="DejaVu Sans, Arial, sans-serif" font-size="14" font-weight="400" fill="#20242A" text-anchor="start">PEARLM</text>
<rect x="95.00" y="145.00" width="650.00" height="530.00" rx="0" fill="#FAFBFC" stroke="none" stroke-width="0"/>
<line x1="95.00" y1="675.00" x2="745.00" y2="675.00" stroke="#D9DEE5" stroke-width="1"/>
<text x="85.00" y="680.00" font-family="DejaVu Sans, Arial, sans-serif" font-size="12" font-weight="400" fill="#5D6670" text-anchor="end">0.01</text>
<line x1="95.00" y1="542.50" x2="745.00" y2="542.50" stroke="#D9DEE5" stroke-width="1"/>
<text x="85.00" y="547.50" font-family="DejaVu Sans, Arial, sans-serif" font-size="12" font-weight="400" fill="#5D6670" text-anchor="end">0.04</text>
<line x1="95.00" y1="410.00" x2="745.00" y2="410.00" stroke="#D9DEE5" stroke-width="1"/>
<text x="85.00" y="415.00" font-family="DejaVu Sans, Arial, sans-serif" font-size="12" font-weight="400" fill="#5D6670" text-anchor="end">0.07</text>
<line x1="95.00" y1="277.50" x2="745.00" y2="277.50" stroke="#D9DEE5" stroke-width="1"/>
<text x="85.00" y="282.50" font-family="DejaVu Sans, Arial, sans-serif" font-size="12" font-weight="400" fill="#5D6670" text-anchor="end">0.11</text>
<line x1="95.00" y1="145.00" x2="745.00" y2="145.00" stroke="#D9DEE5" stroke-width="1"/>
<text x="85.00" y="150.00" font-family="DejaVu Sans, Arial, sans-serif" font-size="12" font-weight="400" fill="#5D6670" text-anchor="end">0.14</text>
<line x1="95.00" y1="145.00" x2="95.00" y2="675.00" stroke="#20242A" stroke-width="1.4"/>
<line x1="95.00" y1="675.00" x2="745.00" y2="675.00" stroke="#20242A" stroke-width="1.4"/>
<text x="95.00" y="700.00" font-family="DejaVu Sans, Arial, sans-serif" font-size="12" font-weight="400" fill="#5D6670" text-anchor="middle">0.5</text>
<text x="257.50" y="700.00" font-family="DejaVu Sans, Arial, sans-serif" font-size="12" font-weight="400" fill="#5D6670" text-anchor="middle">0.6</text>
<text x="420.00" y="700.00" font-family="DejaVu Sans, Arial, sans-serif" font-size="12" font-weight="400" fill="#5D6670" text-anchor="middle">0.8</text>
<text x="582.50" y="700.00" font-family="DejaVu Sans, Arial, sans-serif" font-size="12" font-weight="400" fill="#5D6670" text-anchor="middle">0.9</text>
<text x="745.00" y="700.00" font-family="DejaVu Sans, Arial, sans-serif" font-size="12" font-weight="400" fill="#5D6670" text-anchor="middle">1.0</text>
<text x="95.00" y="132.00" font-family="DejaVu Sans, Arial, sans-serif" font-size="14" font-weight="600" fill="#5D6670" text-anchor="start">Sweep NDCG</text>
<text x="420.00" y="728.00" font-family="DejaVu Sans, Arial, sans-serif" font-size="14" font-weight="500" fill="#20242A" text-anchor="middle">Implemented SEP score</text>
<text x="95.00" y="102.00" font-family="DejaVu Sans, Arial, sans-serif" font-size="19" font-weight="700" fill="#20242A" text-anchor="start">(a) LastFM</text>
<polyline points="193.51,253.47 497.22,255.03 543.82,255.03 577.38,262.07 600.38,266.36 616.98,271.45 630.01,274.57 641.32,276.92 651.04,280.04 659.52,282.78 667.02,288.25 674.28,293.33 681.53,305.84 688.05,329.68 692.96,342.97 696.90,348.05 700.22,353.13 703.17,362.90 705.63,376.97 707.72,397.30 708.58,430.91" fill="none" stroke="#0072B2" stroke-width="2.4" stroke-linejoin="round" stroke-linecap="round"/>
<circle cx="193.51" cy="253.47" r="4.20" fill="#FFFFFF" stroke="#0072B2" stroke-width="1.5"/>
<circle cx="616.98" cy="271.45" r="4.20" fill="#0072B2" stroke="#0072B2" stroke-width="1.5"/>
<circle cx="667.02" cy="288.25" r="4.20" fill="#0072B2" stroke="#0072B2" stroke-width="1.5"/>
<circle cx="696.90" cy="348.05" r="4.20" fill="#0072B2" stroke="#0072B2" stroke-width="1.5"/>
<circle cx="708.58" cy="430.91" r="4.20" fill="#0072B2" stroke="#0072B2" stroke-width="1.5"/>
<polyline points="129.82,204.22 437.09,203.44 475.33,200.70 508.65,197.58 535.83,195.62 556.61,191.32 572.71,190.15 585.25,190.93 595.21,189.76 603.82,187.41 610.95,187.41 617.10,188.59 622.26,187.81 626.81,186.63 630.63,185.85 633.82,184.29 636.65,181.55 638.86,188.98 640.58,194.06 641.57,202.27 642.06,211.26" fill="none" stroke="#D55E00" stroke-width="2.4" stroke-linejoin="round" stroke-linecap="round" stroke-dasharray="9 4"/>
<rect x="125.62" y="200.02" width="8.40" height="8.40" rx="0" fill="#FFFFFF" stroke="#D55E00" stroke-width="1.5"/>
<rect x="552.41" y="187.12" width="8.40" height="8.40" rx="0" fill="#D55E00" stroke="#D55E00" stroke-width="1.5"/>
<rect x="606.75" y="183.21" width="8.40" height="8.40" rx="0" fill="#D55E00" stroke="#D55E00" stroke-width="1.5"/>
<rect x="629.62" y="180.09" width="8.40" height="8.40" rx="0" fill="#D55E00" stroke="#D55E00" stroke-width="1.5"/>
<rect x="637.86" y="207.06" width="8.40" height="8.40" rx="0" fill="#D55E00" stroke="#D55E00" stroke-width="1.5"/>
<polyline points="392.70,296.85 629.40,315.61 674.28,322.65 690.63,331.24 698.25,339.45 702.06,343.36 703.91,347.66 705.26,349.61 706.12,352.74 706.86,355.09 707.60,355.87 708.09,357.43 708.46,358.60 708.83,360.17 709.19,362.12 709.44,363.68 709.69,366.03 709.93,367.20 710.06,369.16 710.18,371.89 710.18,373.85" fill="none" stroke="#009E73" stroke-width="2.4" stroke-linejoin="round" stroke-linecap="round" stroke-dasharray="3 3"/>
<polygon points="392.70,291.81 388.50,301.05 396.90,301.05" fill="#FFFFFF" stroke="#009E73" stroke-width="1.5"/>
<polygon points="702.06,338.32 697.86,347.56 706.26,347.56" fill="#009E73" stroke="#009E73" stroke-width="1.5"/>
<polygon points="707.60,350.83 703.40,360.07 711.80,360.07" fill="#009E73" stroke="#009E73" stroke-width="1.5"/>
<polygon points="709.44,358.64 705.24,367.88 713.64,367.88" fill="#009E73" stroke="#009E73" stroke-width="1.5"/>
<polygon points="710.18,368.81 705.98,378.05 714.38,378.05" fill="#009E73" stroke="#009E73" stroke-width="1.5"/>
<polyline points="170.27,227.67 387.91,219.85 453.69,210.87 494.88,206.17 522.67,203.83 542.83,204.61 558.08,209.69 569.76,215.56 579.11,217.90 586.73,222.20 592.88,228.06 598.04,236.27 602.47,237.44 606.16,242.13 609.11,245.65 611.57,252.69 613.53,260.89 615.13,272.23 616.24,278.48 616.85,283.17 616.98,290.99" fill="none" stroke="#7A5195" stroke-width="2.4" stroke-linejoin="round" stroke-linecap="round" stroke-dasharray="11 3 2 3"/>
<polygon points="170.27,222.63 166.07,227.67 170.27,232.71 174.47,227.67" fill="#FFFFFF" stroke="#7A5195" stroke-width="1.5"/>
<polygon points="542.83,199.57 538.63,204.61 542.83,209.65 547.03,204.61" fill="#7A5195" stroke="#7A5195" stroke-width="1.5"/>
<polygon points="592.88,223.02 588.68,228.06 592.88,233.10 597.08,228.06" fill="#7A5195" stroke="#7A5195" stroke-width="1.5"/>
<polygon points="611.57,247.65 607.37,252.69 611.57,257.73 615.77,252.69" fill="#7A5195" stroke="#7A5195" stroke-width="1.5"/>
<polygon points="616.98,285.95 612.78,290.99 616.98,296.03 621.18,290.99" fill="#7A5195" stroke="#7A5195" stroke-width="1.5"/>
<polyline points="350.28,615.78 354.10,615.78 354.71,615.78 354.83,615.78 354.96,615.78 355.45,615.78 355.69,615.78 356.19,615.78 360.73,615.78 362.95,615.78 363.19,615.78 364.55,615.78 373.52,616.17 375.61,616.17 376.35,615.78 376.60,615.78 376.72,615.78 377.58,616.17 377.70,616.17 377.83,616.17 377.83,616.17" fill="none" stroke="#333333" stroke-width="2.4" stroke-linejoin="round" stroke-linecap="round" stroke-dasharray="2 5"/>
<line x1="346.08" y1="615.78" x2="354.48" y2="615.78" stroke="#333333" stroke-width="2"/>
<line x1="350.28" y1="611.58" x2="350.28" y2="619.98" stroke="#333333" stroke-width="2"/>
<line x1="351.25" y1="615.78" x2="359.65" y2="615.78" stroke="#333333" stroke-width="2"/>
<line x1="355.45" y1="611.58" x2="355.45" y2="619.98" stroke="#333333" stroke-width="2"/>
<line x1="358.99" y1="615.78" x2="367.39" y2="615.78" stroke="#333333" stroke-width="2"/>
<line x1="363.19" y1="611.58" x2="363.19" y2="619.98" stroke="#333333" stroke-width="2"/>
<line x1="372.40" y1="615.78" x2="380.80" y2="615.78" stroke="#333333" stroke-width="2"/>
<line x1="376.60" y1="611.58" x2="376.60" y2="619.98" stroke="#333333" stroke-width="2"/>
<line x1="373.63" y1="616.17" x2="382.03" y2="616.17" stroke="#333333" stroke-width="2"/>
<line x1="377.83" y1="611.97" x2="377.83" y2="620.37" stroke="#333333" stroke-width="2"/>
<polyline points="141.75,635.32 210.73,636.10 221.67,636.49 228.19,636.10 233.47,636.49 236.79,636.88 239.13,636.88 240.97,636.88 242.20,637.28 242.94,637.28 243.56,637.67 243.93,637.67 244.29,638.06 244.42,638.06 244.66,638.06 244.66,638.06 244.79,638.45 244.91,638.45 244.91,638.45 244.91,638.45 244.91,638.45" fill="none" stroke="#E69F00" stroke-width="2.4" stroke-linejoin="round" stroke-linecap="round" stroke-dasharray="7 3 2 3"/>
<line x1="137.55" y1="631.12" x2="145.95" y2="639.52" stroke="#E69F00" stroke-width="2"/>
<line x1="137.55" y1="639.52" x2="145.95" y2="631.12" stroke="#E69F00" stroke-width="2"/>
<line x1="232.59" y1="632.68" x2="240.99" y2="641.08" stroke="#E69F00" stroke-width="2"/>
<line x1="232.59" y1="641.08" x2="240.99" y2="632.68" stroke="#E69F00" stroke-width="2"/>
<line x1="239.36" y1="633.47" x2="247.76" y2="641.87" stroke="#E69F00" stroke-width="2"/>
<line x1="239.36" y1="641.87" x2="247.76" y2="633.47" stroke="#E69F00" stroke-width="2"/>
<line x1="240.46" y1="633.86" x2="248.86" y2="642.26" stroke="#E69F00" stroke-width="2"/>
<line x1="240.46" y1="642.26" x2="248.86" y2="633.86" stroke="#E69F00" stroke-width="2"/>
<line x1="240.71" y1="634.25" x2="249.11" y2="642.65" stroke="#E69F00" stroke-width="2"/>
<line x1="240.71" y1="642.65" x2="249.11" y2="634.25" stroke="#E69F00" stroke-width="2"/>
<rect x="855.00" y="145.00" width="650.00" height="530.00" rx="0" fill="#FAFBFC" stroke="none" stroke-width="0"/>
<line x1="855.00" y1="675.00" x2="1505.00" y2="675.00" stroke="#D9DEE5" stroke-width="1"/>
<text x="845.00" y="680.00" font-family="DejaVu Sans, Arial, sans-serif" font-size="12" font-weight="400" fill="#5D6670" text-anchor="end">0.03</text>
<line x1="855.00" y1="542.50" x2="1505.00" y2="542.50" stroke="#D9DEE5" stroke-width="1"/>
<text x="845.00" y="547.50" font-family="DejaVu Sans, Arial, sans-serif" font-size="12" font-weight="400" fill="#5D6670" text-anchor="end">0.05</text>
<line x1="855.00" y1="410.00" x2="1505.00" y2="410.00" stroke="#D9DEE5" stroke-width="1"/>
<text x="845.00" y="415.00" font-family="DejaVu Sans, Arial, sans-serif" font-size="12" font-weight="400" fill="#5D6670" text-anchor="end">0.08</text>
<line x1="855.00" y1="277.50" x2="1505.00" y2="277.50" stroke="#D9DEE5" stroke-width="1"/>
<text x="845.00" y="282.50" font-family="DejaVu Sans, Arial, sans-serif" font-size="12" font-weight="400" fill="#5D6670" text-anchor="end">0.10</text>
<line x1="855.00" y1="145.00" x2="1505.00" y2="145.00" stroke="#D9DEE5" stroke-width="1"/>
<text x="845.00" y="150.00" font-family="DejaVu Sans, Arial, sans-serif" font-size="12" font-weight="400" fill="#5D6670" text-anchor="end">0.12</text>
<line x1="855.00" y1="145.00" x2="855.00" y2="675.00" stroke="#20242A" stroke-width="1.4"/>
<line x1="855.00" y1="675.00" x2="1505.00" y2="675.00" stroke="#20242A" stroke-width="1.4"/>
<text x="855.00" y="700.00" font-family="DejaVu Sans, Arial, sans-serif" font-size="12" font-weight="400" fill="#5D6670" text-anchor="middle">0.4</text>
<text x="1017.50" y="700.00" font-family="DejaVu Sans, Arial, sans-serif" font-size="12" font-weight="400" fill="#5D6670" text-anchor="middle">0.6</text>
<text x="1180.00" y="700.00" font-family="DejaVu Sans, Arial, sans-serif" font-size="12" font-weight="400" fill="#5D6670" text-anchor="middle">0.7</text>
<text x="1342.50" y="700.00" font-family="DejaVu Sans, Arial, sans-serif" font-size="12" font-weight="400" fill="#5D6670" text-anchor="middle">0.9</text>
<text x="1505.00" y="700.00" font-family="DejaVu Sans, Arial, sans-serif" font-size="12" font-weight="400" fill="#5D6670" text-anchor="middle">1.0</text>
<text x="855.00" y="132.00" font-family="DejaVu Sans, Arial, sans-serif" font-size="14" font-weight="600" fill="#5D6670" text-anchor="start">Sweep NDCG</text>
<text x="1180.00" y="728.00" font-family="DejaVu Sans, Arial, sans-serif" font-size="14" font-weight="500" fill="#20242A" text-anchor="middle">Implemented SEP score</text>
<text x="855.00" y="102.00" font-family="DejaVu Sans, Arial, sans-serif" font-size="19" font-weight="700" fill="#20242A" text-anchor="start">(b) ML-1M</text>
<polyline points="909.75,262.92 1245.45,266.22 1308.34,275.57 1351.64,282.17 1378.91,291.51 1396.72,298.11 1409.74,306.91 1419.76,319.01 1427.55,330.55 1434.00,337.70 1439.79,346.50 1444.69,352.54 1449.14,359.69 1453.04,369.04 1456.71,379.49 1460.05,396.53 1462.94,408.63 1465.50,428.42 1467.95,452.61 1469.62,477.35 1470.18,504.84" fill="none" stroke="#0072B2" stroke-width="2.4" stroke-linejoin="round" stroke-linecap="round"/>
<circle cx="909.75" cy="262.92" r="4.20" fill="#FFFFFF" stroke="#0072B2" stroke-width="1.5"/>
<circle cx="1396.72" cy="298.11" r="4.20" fill="#0072B2" stroke="#0072B2" stroke-width="1.5"/>
<circle cx="1439.79" cy="346.50" r="4.20" fill="#0072B2" stroke="#0072B2" stroke-width="1.5"/>
<circle cx="1460.05" cy="396.53" r="4.20" fill="#0072B2" stroke="#0072B2" stroke-width="1.5"/>
<circle cx="1470.18" cy="504.84" r="4.20" fill="#0072B2" stroke="#0072B2" stroke-width="1.5"/>
<polyline points="924.99,349.25 1126.80,348.70 1142.71,349.25 1156.18,350.89 1167.20,351.44 1175.66,350.89 1182.00,353.64 1186.68,354.74 1190.13,356.39 1192.58,358.59 1194.69,360.24 1196.03,362.44 1197.14,365.19 1198.14,365.19 1198.81,365.74 1199.26,366.84 1199.59,368.49 1199.81,368.49 1199.92,370.14 1200.04,370.14 1200.04,369.59" fill="none" stroke="#D55E00" stroke-width="2.4" stroke-linejoin="round" stroke-linecap="round" stroke-dasharray="9 4"/>
<rect x="920.79" y="345.05" width="8.40" height="8.40" rx="0" fill="#FFFFFF" stroke="#D55E00" stroke-width="1.5"/>
<rect x="1171.46" y="346.69" width="8.40" height="8.40" rx="0" fill="#D55E00" stroke="#D55E00" stroke-width="1.5"/>
<rect x="1190.49" y="356.04" width="8.40" height="8.40" rx="0" fill="#D55E00" stroke="#D55E00" stroke-width="1.5"/>
<rect x="1195.06" y="362.64" width="8.40" height="8.40" rx="0" fill="#D55E00" stroke="#D55E00" stroke-width="1.5"/>
<rect x="1195.84" y="365.39" width="8.40" height="8.40" rx="0" fill="#D55E00" stroke="#D55E00" stroke-width="1.5"/>
<polyline points="889.82,181.55 1156.07,211.79 1278.51,255.23 1349.41,313.51 1392.15,365.19 1418.20,406.43 1432.45,425.67 1441.02,442.71 1446.58,457.56 1450.48,470.75 1453.26,480.10 1455.71,492.20 1457.71,503.19 1459.27,512.54 1460.72,521.34 1461.94,531.23 1463.05,544.98 1464.17,556.53 1464.95,569.72 1465.39,579.62 1465.50,588.96" fill="none" stroke="#009E73" stroke-width="2.4" stroke-linejoin="round" stroke-linecap="round" stroke-dasharray="3 3"/>
<polygon points="889.82,176.51 885.62,185.75 894.02,185.75" fill="#FFFFFF" stroke="#009E73" stroke-width="1.5"/>
<polygon points="1418.20,401.39 1414.00,410.63 1422.40,410.63" fill="#009E73" stroke="#009E73" stroke-width="1.5"/>
<polygon points="1453.26,475.06 1449.06,484.30 1457.46,484.30" fill="#009E73" stroke="#009E73" stroke-width="1.5"/>
<polygon points="1461.94,526.19 1457.74,535.43 1466.14,535.43" fill="#009E73" stroke="#009E73" stroke-width="1.5"/>
<polygon points="1465.50,583.92 1461.30,593.16 1469.70,593.16" fill="#009E73" stroke="#009E73" stroke-width="1.5"/>
<polyline points="926.44,305.26 1243.67,304.71 1299.77,304.71 1338.17,305.26 1364.66,309.11 1383.47,313.51 1397.83,320.66 1409.07,325.60 1417.64,331.10 1424.88,338.25 1431.22,344.30 1436.01,351.99 1440.24,358.04 1443.80,364.64 1446.80,374.54 1449.59,386.08 1451.70,398.73 1453.48,412.47 1454.82,422.37 1455.60,436.67 1455.82,449.31" fill="none" stroke="#7A5195" stroke-width="2.4" stroke-linejoin="round" stroke-linecap="round" stroke-dasharray="11 3 2 3"/>
<polygon points="926.44,300.22 922.24,305.26 926.44,310.30 930.64,305.26" fill="#FFFFFF" stroke="#7A5195" stroke-width="1.5"/>
<polygon points="1383.47,308.47 1379.27,313.51 1383.47,318.55 1387.67,313.51" fill="#7A5195" stroke="#7A5195" stroke-width="1.5"/>
<polygon points="1431.22,339.26 1427.02,344.30 1431.22,349.34 1435.42,344.30" fill="#7A5195" stroke="#7A5195" stroke-width="1.5"/>
<polygon points="1449.59,381.04 1445.39,386.08 1449.59,391.12 1453.79,386.08" fill="#7A5195" stroke="#7A5195" stroke-width="1.5"/>
<polygon points="1455.82,444.27 1451.62,449.31 1455.82,454.35 1460.02,449.31" fill="#7A5195" stroke="#7A5195" stroke-width="1.5"/>
<polyline points="908.97,638.45 908.97,638.45 908.97,638.45 908.97,638.45 908.97,638.45 908.97,638.45 908.97,638.45 908.97,638.45 908.97,638.45 908.97,638.45 908.97,638.45 908.97,638.45 908.97,638.45 908.97,638.45 908.97,638.45 908.97,638.45 908.97,638.45 908.97,638.45 908.97,638.45 908.97,638.45 908.97,638.45" fill="none" stroke="#333333" stroke-width="2.4" stroke-linejoin="round" stroke-linecap="round" stroke-dasharray="2 5"/>
<line x1="904.77" y1="638.45" x2="913.17" y2="638.45" stroke="#333333" stroke-width="2"/>
<line x1="908.97" y1="634.25" x2="908.97" y2="642.65" stroke="#333333" stroke-width="2"/>
<line x1="904.77" y1="638.45" x2="913.17" y2="638.45" stroke="#333333" stroke-width="2"/>
<line x1="908.97" y1="634.25" x2="908.97" y2="642.65" stroke="#333333" stroke-width="2"/>
<line x1="904.77" y1="638.45" x2="913.17" y2="638.45" stroke="#333333" stroke-width="2"/>
<line x1="908.97" y1="634.25" x2="908.97" y2="642.65" stroke="#333333" stroke-width="2"/>
<line x1="904.77" y1="638.45" x2="913.17" y2="638.45" stroke="#333333" stroke-width="2"/>
<line x1="908.97" y1="634.25" x2="908.97" y2="642.65" stroke="#333333" stroke-width="2"/>
<line x1="904.77" y1="638.45" x2="913.17" y2="638.45" stroke="#333333" stroke-width="2"/>
<line x1="908.97" y1="634.25" x2="908.97" y2="642.65" stroke="#333333" stroke-width="2"/>
<polyline points="942.69,629.10 958.16,629.10 959.72,629.65 960.28,630.20 960.72,629.65 961.06,630.20 961.17,629.65 961.39,629.65 961.50,629.65 961.61,629.65 961.61,630.20 961.73,629.65 961.73,629.65 961.84,629.65 961.84,629.65 961.84,629.65 961.84,629.65 961.84,629.65 961.84,629.65 961.84,629.65 961.84,629.65" fill="none" stroke="#E69F00" stroke-width="2.4" stroke-linejoin="round" stroke-linecap="round" stroke-dasharray="7 3 2 3"/>
<line x1="938.49" y1="624.90" x2="946.89" y2="633.30" stroke="#E69F00" stroke-width="2"/>
<line x1="938.49" y1="633.30" x2="946.89" y2="624.90" stroke="#E69F00" stroke-width="2"/>
<line x1="956.86" y1="626.00" x2="965.26" y2="634.40" stroke="#E69F00" stroke-width="2"/>
<line x1="956.86" y1="634.40" x2="965.26" y2="626.00" stroke="#E69F00" stroke-width="2"/>
<line x1="957.41" y1="626.00" x2="965.81" y2="634.40" stroke="#E69F00" stroke-width="2"/>
<line x1="957.41" y1="634.40" x2="965.81" y2="626.00" stroke="#E69F00" stroke-width="2"/>
<line x1="957.64" y1="625.45" x2="966.04" y2="633.85" stroke="#E69F00" stroke-width="2"/>
<line x1="957.64" y1="633.85" x2="966.04" y2="625.45" stroke="#E69F00" stroke-width="2"/>
<line x1="957.64" y1="625.45" x2="966.04" y2="633.85" stroke="#E69F00" stroke-width="2"/>
<line x1="957.64" y1="633.85" x2="966.04" y2="625.45" stroke="#E69F00" stroke-width="2"/>
<text x="95.00" y="775.00" font-family="DejaVu Sans, Arial, sans-serif" font-size="16" font-weight="400" fill="#5D6670" text-anchor="start">SEP-oriented alpha sweep; the vertical axis is sweep NDCG, not strict NDCG@10.</text>
</svg>
