<svg xmlns="http://www.w3.org/2000/svg" width="1600" height="900" viewBox="0 0 1600 900">
<rect width="100%" height="100%" fill="#FFFFFF"/>
<text x="55.00" y="48.00" font-family="DejaVu Sans, Arial, sans-serif" font-size="25" font-weight="700" fill="#20242A" text-anchor="start">Evidence streams and alpha-sweep design</text>
<text x="65.00" y="106.00" font-family="DejaVu Sans, Arial, sans-serif" font-size="16" font-weight="700" fill="#245A73" text-anchor="start">STRICT ACCURACY STREAM</text>
<rect x="65.00" y="135.00" width="300.00" height="85.00" rx="5" fill="#EAF1F4" stroke="#245A73" stroke-width="1.6"/>
<text x="215.00" y="171.50" font-family="DejaVu Sans, Arial, sans-serif" font-size="17" font-weight="600" fill="#20242A" text-anchor="middle">Validated strict</text>
<text x="215.00" y="195.50" font-family="DejaVu Sans, Arial, sans-serif" font-size="17" font-weight="400" fill="#20242A" text-anchor="middle">recommendation output</text>
<rect x="450.00" y="135.00" width="300.00" height="85.00" rx="5" fill="#FFFFFF" stroke="#245A73" stroke-width="1.6"/>
<text x="600.00" y="171.50" font-family="DejaVu Sans, Arial, sans-serif" font-size="17" font-weight="600" fill="#20242A" text-anchor="middle">HR@10 / NDCG@10</text>
<text x="600.00" y="195.50" font-family="DejaVu Sans, Arial, sans-serif" font-size="17" font-weight="400" fill="#20242A" text-anchor="middle">Precision@10 / Recall@10</text>
<rect x="865.00" y="135.00" width="300.00" height="85.00" rx="5" fill="#FFFFFF" stroke="#245A73" stroke-width="1.6"/>
<text x="1015.00" y="171.50" font-family="DejaVu Sans, Arial, sans-serif" font-size="17" font-weight="600" fill="#20242A" text-anchor="middle">Chapter 4</text>
<text x="1015.00" y="195.50" font-family="DejaVu Sans, Arial, sans-serif" font-size="17" font-weight="400" fill="#20242A" text-anchor="middle">strict comparison</text>
<line x1="365.00" y1="178.00" x2="440.00" y2="178.00" stroke="#20242A" stroke-width="1.8"/>
<polygon points="440.00,178.00 430.71,183.89 430.71,172.11" fill="#20242A" stroke="#20242A" stroke-width="1"/>
<line x1="750.00" y1="178.00" x2="855.00" y2="178.00" stroke="#20242A" stroke-width="1.8"/>
<polygon points="855.00,178.00 845.71,183.89 845.71,172.11" fill="#20242A" stroke="#20242A" stroke-width="1"/>
<text x="65.00" y="300.00" font-family="DejaVu Sans, Arial, sans-serif" font-size="16" font-weight="700" fill="#245A73" text-anchor="start">OBJECTIVE-SPECIFIC ALPHA-SWEEP STREAM</text>
<rect x="65.00" y="330.00" width="270.00" height="85.00" rx="5" fill="#FFFFFF" stroke="#245A73" stroke-width="1.6"/>
<text x="200.00" y="354.50" font-family="DejaVu Sans, Arial, sans-serif" font-size="17" font-weight="600" fill="#20242A" text-anchor="middle">alpha = 0</text>
<text x="200.00" y="378.50" font-family="DejaVu Sans, Arial, sans-serif" font-size="17" font-weight="400" fill="#20242A" text-anchor="middle">ranking-oriented</text>
<text x="200.00" y="402.50" font-family="DejaVu Sans, Arial, sans-serif" font-size="17" font-weight="400" fill="#20242A" text-anchor="middle">baseline</text>
<rect x="400.00" y="330.00" width="270.00" height="85.00" rx="5" fill="#FFFFFF" stroke="#245A73" stroke-width="1.6"/>
<text x="535.00" y="366.50" font-family="DejaVu Sans, Arial, sans-serif" font-size="17" font-weight="600" fill="#20242A" text-anchor="middle">intermediate</text>
<text x="535.00" y="390.50" font-family="DejaVu Sans, Arial, sans-serif" font-size="17" font-weight="400" fill="#20242A" text-anchor="middle">alpha values</text>
<rect x="735.00" y="330.00" width="270.00" height="85.00" rx="5" fill="#FFFFFF" stroke="#245A73" stroke-width="1.6"/>
<text x="870.00" y="366.50" font-family="DejaVu Sans, Arial, sans-serif" font-size="17" font-weight="600" fill="#20242A" text-anchor="middle">alpha = 1</text>
<text x="870.00" y="390.50" font-family="DejaVu Sans, Arial, sans-serif" font-size="17" font-weight="400" fill="#20242A" text-anchor="middle">objective endpoint</text>
<line x1="335.00" y1="372.00" x2="390.00" y2="372.00" stroke="#20242A" stroke-width="1.8"/>
<polygon points="390.00,372.00 380.71,377.89 380.71,366.11" fill="#20242A" stroke="#20242A" stroke-width="1"/>
<line x1="670.00" y1="372.00" x2="725.00" y2="372.00" stroke="#20242A" stroke-width="1.8"/>
<polygon points="725.00,372.00 715.71,377.89 715.71,366.11" fill="#20242A" stroke="#20242A" stroke-width="1"/>
<rect x="155.00" y="520.00" width="230.00" height="78.00" rx="5" fill="#FFFFFF" stroke="#5D6670" stroke-width="1.6"/>
<text x="270.00" y="553.00" font-family="DejaVu Sans, Arial, sans-serif" font-size="17" font-weight="600" fill="#20242A" text-anchor="middle">LIR</text>
<text x="270.00" y="577.00" font-family="DejaVu Sans, Arial, sans-serif" font-size="17" font-weight="400" fill="#20242A" text-anchor="middle">linked recency</text>
<line x1="870.00" y1="415.00" x2="270.00" y2="510.00" stroke="#20242A" stroke-width="1.8"/>
<polygon points="270.00,510.00 278.25,502.73 280.10,514.37" fill="#20242A" stroke="#20242A" stroke-width="1"/>
<rect x="485.00" y="520.00" width="230.00" height="78.00" rx="5" fill="#FFFFFF" stroke="#5D6670" stroke-width="1.6"/>
<text x="600.00" y="553.00" font-family="DejaVu Sans, Arial, sans-serif" font-size="17" font-weight="600" fill="#20242A" text-anchor="middle">SEP</text>
<text x="600.00" y="577.00" font-family="DejaVu Sans, Arial, sans-serif" font-size="17" font-weight="400" fill="#20242A" text-anchor="middle">implemented score</text>
<line x1="870.00" y1="415.00" x2="600.00" y2="510.00" stroke="#20242A" stroke-width="1.8"/>
<polygon points="600.00,510.00 606.80,501.36 610.72,512.48" fill="#20242A" stroke="#20242A" stroke-width="1"/>
<rect x="815.00" y="520.00" width="230.00" height="78.00" rx="5" fill="#FFFFFF" stroke="#5D6670" stroke-width="1.6"/>
<text x="930.00" y="553.00" font-family="DejaVu Sans, Arial, sans-serif" font-size="17" font-weight="600" fill="#20242A" text-anchor="middle">ETD</text>
<text x="930.00" y="577.00" font-family="DejaVu Sans, Arial, sans-serif" font-size="17" font-weight="400" fill="#20242A" text-anchor="middle">path-type diversity</text>
<line x1="870.00" y1="415.00" x2="930.00" y2="510.00" stroke="#20242A" stroke-width="1.8"/>
<polygon points="930.00,510.00 920.06,505.29 930.02,499.00" fill="#20242A" stroke="#20242A" stroke-width="1"/>
<rect x="1120.00" y="330.00" width="330.00" height="85.00" rx="5" fill="#F4EEE6" stroke="#8A5A20" stroke-width="1.6"/>
<text x="1285.00" y="366.50" font-family="DejaVu Sans, Arial, sans-serif" font-size="17" font-weight="600" fill="#20242A" text-anchor="middle">Paired sweep NDCG</text>
<text x="1285.00" y="390.50" font-family="DejaVu Sans, Arial, sans-serif" font-size="17" font-weight="400" fill="#20242A" text-anchor="middle">not strict NDCG@10</text>
<line x1="1005.00" y1="372.00" x2="1110.00" y2="372.00" stroke="#20242A" stroke-width="1.8"/>
<polygon points="1110.00,372.00 1100.71,377.89 1100.71,366.11" fill="#20242A" stroke="#20242A" stroke-width="1"/>
<rect x="520.00" y="685.00" width="400.00" height="80.00" rx="5" fill="#EAF1F4" stroke="#245A73" stroke-width="1.6"/>
<text x="720.00" y="719.00" font-family="DejaVu Sans, Arial, sans-serif" font-size="17" font-weight="600" fill="#20242A" text-anchor="middle">Metric-specific trade-off</text>
<text x="720.00" y="743.00" font-family="DejaVu Sans, Arial, sans-serif" font-size="17" font-weight="400" fill="#20242A" text-anchor="middle">trajectories and endpoints</text>
<line x1="270.00" y1="598.00" x2="650.00" y2="675.00" stroke="#20242A" stroke-width="1.8"/>
<polygon points="650.00,675.00 639.73,678.93 642.07,667.38" fill="#20242A" stroke="#20242A" stroke-width="1"/>
<line x1="600.00" y1="598.00" x2="650.00" y2="675.00" stroke="#20242A" stroke-width="1.8"/>
<polygon points="650.00,675.00 640.00,670.42 649.89,664.00" fill="#20242A" stroke="#20242A" stroke-width="1"/>
<line x1="930.00" y1="598.00" x2="650.00" y2="675.00" stroke="#20242A" stroke-width="1.8"/>
<polygon points="650.00,675.00 657.39,666.85 660.52,678.22" fill="#20242A" stroke="#20242A" stroke-width="1"/>
<line x1="1285.00" y1="415.00" x2="895.00" y2="675.00" stroke="#20242A" stroke-width="1.8"/>
<polygon points="895.00,675.00 899.46,664.94 906.00,674.75" fill="#20242A" stroke="#20242A" stroke-width="1"/>
<rect x="1060.00" y="675.00" width="390.00" height="95.00" rx="5" fill="#FFFFFF" stroke="#5D6670" stroke-width="1.6"/>
<text x="1255.00" y="716.50" font-family="DejaVu Sans, Arial, sans-serif" font-size="17" font-weight="600" fill="#20242A" text-anchor="middle">Separate PGPR/UCPR ablation</text>
<text x="1255.00" y="740.50" font-family="DejaVu Sans, Arial, sans-serif" font-size="17" font-weight="400" fill="#20242A" text-anchor="middle">baseline preservation + retention</text>
<text x="65.00" y="845.00" font-family="DejaVu Sans, Arial, sans-serif" font-size="18" font-weight="400" fill="#5D6670" text-anchor="start">Strict accuracy, main sweeps, and ablation retain separate provenance and interpretation.</text>
</svg>
