<svg xmlns="http://www.w3.org/2000/svg" width="1600" height="1100" viewBox="0 0 1600 1100">
<rect width="100%" height="100%" fill="#FFFFFF"/>
<text x="1170.00" y="48.00" font-family="DejaVu Sans, Arial, sans-serif" font-size="14" font-weight="400" fill="#20242A" text-anchor="start">alpha=0</text>
<circle cx="1142.00" cy="42.00" r="5.00" fill="#FFFFFF" stroke="#454B52" stroke-width="1.5"/>
<text x="1390.00" y="48.00" font-family="DejaVu Sans, Arial, sans-serif" font-size="14" font-weight="400" fill="#20242A" text-anchor="start">alpha=1</text>
<rect x="1357.00" y="37.00" width="10.00" height="10.00" rx="0" fill="#245A73" stroke="#245A73" stroke-width="1.5"/>
<rect x="70.00" y="135.00" width="445.00" height="305.00" rx="0" fill="#FAFBFC" stroke="none" stroke-width="0"/>
<line x1="70.00" y1="440.00" x2="515.00" y2="440.00" stroke="#D9DEE5" stroke-width="1"/>
<text x="60.00" y="445.00" font-family="DejaVu Sans, Arial, sans-serif" font-size="12" font-weight="400" fill="#5D6670" text-anchor="end">0.00</text>
<line x1="70.00" y1="338.33" x2="515.00" y2="338.33" stroke="#D9DEE5" stroke-width="1"/>
<text x="60.00" y="343.33" font-family="DejaVu Sans, Arial, sans-serif" font-size="12" font-weight="400" fill="#5D6670" text-anchor="end">0.01</text>
<line x1="70.00" y1="236.67" x2="515.00" y2="236.67" stroke="#D9DEE5" stroke-width="1"/>
<text x="60.00" y="241.67" font-family="DejaVu Sans, Arial, sans-serif" font-size="12" font-weight="400" fill="#5D6670" text-anchor="end">0.02</text>
<line x1="70.00" y1="135.00" x2="515.00" y2="135.00" stroke="#D9DEE5" stroke-width="1"/>
<text x="60.00" y="140.00" font-family="DejaVu Sans, Arial, sans-serif" font-size="12" font-weight="400" fill="#5D6670" text-anchor="end">0.02</text>
<line x1="70.00" y1="135.00" x2="70.00" y2="440.00" stroke="#20242A" stroke-width="1.4"/>
<line x1="70.00" y1="440.00" x2="515.00" y2="440.00" stroke="#20242A" stroke-width="1.4"/>
<line x1="107.08" y1="440.00" x2="107.08" y2="445.00" stroke="#20242A" stroke-width="1"/>
<text x="107.08" y="465.00" font-family="DejaVu Sans, Arial, sans-serif" font-size="12" font-weight="400" fill="#5D6670" text-anchor="middle">PGPR</text>
<line x1="181.25" y1="440.00" x2="181.25" y2="445.00" stroke="#20242A" stroke-width="1"/>
<text x="181.25" y="465.00" font-family="DejaVu Sans, Arial, sans-serif" font-size="12" font-weight="400" fill="#5D6670" text-anchor="middle">UCPR</text>
<line x1="255.42" y1="440.00" x2="255.42" y2="445.00" stroke="#20242A" stroke-width="1"/>
<text x="255.42" y="465.00" font-family="DejaVu Sans, Arial, sans-serif" font-size="12" font-weight="400" fill="#5D6670" text-anchor="middle">CAFE</text>
<line x1="329.58" y1="440.00" x2="329.58" y2="445.00" stroke="#20242A" stroke-width="1"/>
<text x="329.58" y="465.00" font-family="DejaVu Sans, Arial, sans-serif" font-size="12" font-weight="400" fill="#5D6670" text-anchor="middle">TPRec</text>
<line x1="403.75" y1="440.00" x2="403.75" y2="445.00" stroke="#20242A" stroke-width="1"/>
<text x="403.75" y="465.00" font-family="DejaVu Sans, Arial, sans-serif" font-size="12" font-weight="400" fill="#5D6670" text-anchor="middle">KGGLM</text>
<line x1="477.92" y1="440.00" x2="477.92" y2="445.00" stroke="#20242A" stroke-width="1"/>
<text x="477.92" y="465.00" font-family="DejaVu Sans, Arial, sans-serif" font-size="12" font-weight="400" fill="#5D6670" text-anchor="middle">PEARLM</text>
<text x="70.00" y="122.00" font-family="DejaVu Sans, Arial, sans-serif" font-size="14" font-weight="600" fill="#5D6670" text-anchor="start">LIR</text>
<text x="292.50" y="493.00" font-family="DejaVu Sans, Arial, sans-serif" font-size="14" font-weight="500" fill="#20242A" text-anchor="middle">Model</text>
<text x="70.00" y="92.00" font-family="DejaVu Sans, Arial, sans-serif" font-size="19" font-weight="700" fill="#20242A" text-anchor="start">(a) LastFM - LIR</text>
<line x1="107.08" y1="362.90" x2="107.08" y2="167.68" stroke="#9098A0" stroke-width="1.5"/>
<circle cx="107.08" cy="362.90" r="4.50" fill="#FFFFFF" stroke="#454B52" stroke-width="1.5"/>
<rect x="102.58" y="163.18" width="9.00" height="9.00" rx="0" fill="#245A73" stroke="#245A73" stroke-width="1.5"/>
<line x1="181.25" y1="377.83" x2="181.25" y2="293.27" stroke="#9098A0" stroke-width="1.5"/>
<circle cx="181.25" cy="377.83" r="4.50" fill="#FFFFFF" stroke="#454B52" stroke-width="1.5"/>
<rect x="176.75" y="288.77" width="9.00" height="9.00" rx="0" fill="#245A73" stroke="#245A73" stroke-width="1.5"/>
<line x1="255.42" y1="425.08" x2="255.42" y2="387.77" stroke="#9098A0" stroke-width="1.5"/>
<circle cx="255.42" cy="425.08" r="4.50" fill="#FFFFFF" stroke="#454B52" stroke-width="1.5"/>
<rect x="250.92" y="383.27" width="9.00" height="9.00" rx="0" fill="#245A73" stroke="#245A73" stroke-width="1.5"/>
<line x1="329.58" y1="370.37" x2="329.58" y2="301.97" stroke="#9098A0" stroke-width="1.5"/>
<circle cx="329.58" cy="370.37" r="4.50" fill="#FFFFFF" stroke="#454B52" stroke-width="1.5"/>
<rect x="325.08" y="297.47" width="9.00" height="9.00" rx="0" fill="#245A73" stroke="#245A73" stroke-width="1.5"/>
<line x1="403.75" y1="431.30" x2="403.75" y2="428.81" stroke="#9098A0" stroke-width="1.5"/>
<circle cx="403.75" cy="431.30" r="4.50" fill="#FFFFFF" stroke="#454B52" stroke-width="1.5"/>
<rect x="399.25" y="424.31" width="9.00" height="9.00" rx="0" fill="#245A73" stroke="#245A73" stroke-width="1.5"/>
<line x1="477.92" y1="426.32" x2="477.92" y2="422.59" stroke="#9098A0" stroke-width="1.5"/>
<circle cx="477.92" cy="426.32" r="4.50" fill="#FFFFFF" stroke="#454B52" stroke-width="1.5"/>
<rect x="473.42" y="418.09" width="9.00" height="9.00" rx="0" fill="#245A73" stroke="#245A73" stroke-width="1.5"/>
<rect x="575.00" y="135.00" width="445.00" height="305.00" rx="0" fill="#FAFBFC" stroke="none" stroke-width="0"/>
<line x1="575.00" y1="440.00" x2="1020.00" y2="440.00" stroke="#D9DEE5" stroke-width="1"/>
<text x="565.00" y="445.00" font-family="DejaVu Sans, Arial, sans-serif" font-size="12" font-weight="400" fill="#5D6670" text-anchor="end">0.0</text>
<line x1="575.00" y1="338.33" x2="1020.00" y2="338.33" stroke="#D9DEE5" stroke-width="1"/>
<text x="565.00" y="343.33" font-family="DejaVu Sans, Arial, sans-serif" font-size="12" font-weight="400" fill="#5D6670" text-anchor="end">0.4</text>
<line x1="575.00" y1="236.67" x2="1020.00" y2="236.67" stroke="#D9DEE5" stroke-width="1"/>
<text x="565.00" y="241.67" font-family="DejaVu Sans, Arial, sans-serif" font-size="12" font-weight="400" fill="#5D6670" text-anchor="end">0.7</text>
<line x1="575.00" y1="135.00" x2="1020.00" y2="135.00" stroke="#D9DEE5" stroke-width="1"/>
<text x="565.00" y="140.00" font-family="DejaVu Sans, Arial, sans-serif" font-size="12" font-weight="400" fill="#5D6670" text-anchor="end">1.1</text>
<line x1="575.00" y1="135.00" x2="575.00" y2="440.00" stroke="#20242A" stroke-width="1.4"/>
<line x1="575.00" y1="440.00" x2="1020.00" y2="440.00" stroke="#20242A" stroke-width="1.4"/>
<line x1="612.08" y1="440.00" x2="612.08" y2="445.00" stroke="#20242A" stroke-width="1"/>
<text x="612.08" y="465.00" font-family="DejaVu Sans, Arial, sans-serif" font-size="12" font-weight="400" fill="#5D6670" text-anchor="middle">PGPR</text>
<line x1="686.25" y1="440.00" x2="686.25" y2="445.00" stroke="#20242A" stroke-width="1"/>
<text x="686.25" y="465.00" font-family="DejaVu Sans, Arial, sans-serif" font-size="12" font-weight="400" fill="#5D6670" text-anchor="middle">UCPR</text>
<line x1="760.42" y1="440.00" x2="760.42" y2="445.00" stroke="#20242A" stroke-width="1"/>
<text x="760.42" y="465.00" font-family="DejaVu Sans, Arial, sans-serif" font-size="12" font-weight="400" fill="#5D6670" text-anchor="middle">CAFE</text>
<line x1="834.58" y1="440.00" x2="834.58" y2="445.00" stroke="#20242A" stroke-width="1"/>
<text x="834.58" y="465.00" font-family="DejaVu Sans, Arial, sans-serif" font-size="12" font-weight="400" fill="#5D6670" text-anchor="middle">TPRec</text>
<line x1="908.75" y1="440.00" x2="908.75" y2="445.00" stroke="#20242A" stroke-width="1"/>
<text x="908.75" y="465.00" font-family="DejaVu Sans, Arial, sans-serif" font-size="12" font-weight="400" fill="#5D6670" text-anchor="middle">KGGLM</text>
<line x1="982.92" y1="440.00" x2="982.92" y2="445.00" stroke="#20242A" stroke-width="1"/>
<text x="982.92" y="465.00" font-family="DejaVu Sans, Arial, sans-serif" font-size="12" font-weight="400" fill="#5D6670" text-anchor="middle">PEARLM</text>
<text x="575.00" y="122.00" font-family="DejaVu Sans, Arial, sans-serif" font-size="14" font-weight="600" fill="#5D6670" text-anchor="start">SEP</text>
<text x="797.50" y="493.00" font-family="DejaVu Sans, Arial, sans-serif" font-size="14" font-weight="500" fill="#20242A" text-anchor="middle">Model</text>
<text x="575.00" y="92.00" font-family="DejaVu Sans, Arial, sans-serif" font-size="19" font-weight="700" fill="#20242A" text-anchor="start">(b) LastFM - SEP</text>
<line x1="612.08" y1="283.38" x2="612.08" y2="168.04" stroke="#9098A0" stroke-width="1.5"/>
<circle cx="612.08" cy="283.38" r="4.50" fill="#FFFFFF" stroke="#454B52" stroke-width="1.5"/>
<rect x="607.58" y="163.54" width="9.00" height="9.00" rx="0" fill="#245A73" stroke="#245A73" stroke-width="1.5"/>
<line x1="686.25" y1="297.64" x2="686.25" y2="182.93" stroke="#9098A0" stroke-width="1.5"/>
<circle cx="686.25" cy="297.64" r="4.50" fill="#FFFFFF" stroke="#454B52" stroke-width="1.5"/>
<rect x="681.75" y="178.43" width="9.00" height="9.00" rx="0" fill="#245A73" stroke="#245A73" stroke-width="1.5"/>
<line x1="760.42" y1="238.77" x2="760.42" y2="167.68" stroke="#9098A0" stroke-width="1.5"/>
<circle cx="760.42" cy="238.77" r="4.50" fill="#FFFFFF" stroke="#454B52" stroke-width="1.5"/>
<rect x="755.92" y="163.18" width="9.00" height="9.00" rx="0" fill="#245A73" stroke="#245A73" stroke-width="1.5"/>
<line x1="834.58" y1="288.58" x2="834.58" y2="188.55" stroke="#9098A0" stroke-width="1.5"/>
<circle cx="834.58" cy="288.58" r="4.50" fill="#FFFFFF" stroke="#454B52" stroke-width="1.5"/>
<rect x="830.08" y="184.05" width="9.00" height="9.00" rx="0" fill="#245A73" stroke="#245A73" stroke-width="1.5"/>
<line x1="908.75" y1="248.27" x2="908.75" y2="242.11" stroke="#9098A0" stroke-width="1.5"/>
<circle cx="908.75" cy="248.27" r="4.50" fill="#FFFFFF" stroke="#454B52" stroke-width="1.5"/>
<rect x="904.25" y="237.61" width="9.00" height="9.00" rx="0" fill="#245A73" stroke="#245A73" stroke-width="1.5"/>
<line x1="982.92" y1="294.97" x2="982.92" y2="271.87" stroke="#9098A0" stroke-width="1.5"/>
<circle cx="982.92" cy="294.97" r="4.50" fill="#FFFFFF" stroke="#454B52" stroke-width="1.5"/>
<rect x="978.42" y="267.37" width="9.00" height="9.00" rx="0" fill="#245A73" stroke="#245A73" stroke-width="1.5"/>
<rect x="1080.00" y="135.00" width="445.00" height="305.00" rx="0" fill="#FAFBFC" stroke="none" stroke-width="0"/>
<line x1="1080.00" y1="440.00" x2="1525.00" y2="440.00" stroke="#D9DEE5" stroke-width="1"/>
<text x="1070.00" y="445.00" font-family="DejaVu Sans, Arial, sans-serif" font-size="12" font-weight="400" fill="#5D6670" text-anchor="end">0.0</text>
<line x1="1080.00" y1="338.33" x2="1525.00" y2="338.33" stroke="#D9DEE5" stroke-width="1"/>
<text x="1070.00" y="343.33" font-family="DejaVu Sans, Arial, sans-serif" font-size="12" font-weight="400" fill="#5D6670" text-anchor="end">0.1</text>
<line x1="1080.00" y1="236.67" x2="1525.00" y2="236.67" stroke="#D9DEE5" stroke-width="1"/>
<text x="1070.00" y="241.67" font-family="DejaVu Sans, Arial, sans-serif" font-size="12" font-weight="400" fill="#5D6670" text-anchor="end">0.3</text>
<line x1="1080.00" y1="135.00" x2="1525.00" y2="135.00" stroke="#D9DEE5" stroke-width="1"/>
<text x="1070.00" y="140.00" font-family="DejaVu Sans, Arial, sans-serif" font-size="12" font-weight="400" fill="#5D6670" text-anchor="end">0.4</text>
<line x1="1080.00" y1="135.00" x2="1080.00" y2="440.00" stroke="#20242A" stroke-width="1.4"/>
<line x1="1080.00" y1="440.00" x2="1525.00" y2="440.00" stroke="#20242A" stroke-width="1.4"/>
<line x1="1117.08" y1="440.00" x2="1117.08" y2="445.00" stroke="#20242A" stroke-width="1"/>
<text x="1117.08" y="465.00" font-family="DejaVu Sans, Arial, sans-serif" font-size="12" font-weight="400" fill="#5D6670" text-anchor="middle">PGPR</text>
<line x1="1191.25" y1="440.00" x2="1191.25" y2="445.00" stroke="#20242A" stroke-width="1"/>
<text x="1191.25" y="465.00" font-family="DejaVu Sans, Arial, sans-serif" font-size="12" font-weight="400" fill="#5D6670" text-anchor="middle">UCPR</text>
<line x1="1265.42" y1="440.00" x2="1265.42" y2="445.00" stroke="#20242A" stroke-width="1"/>
<text x="1265.42" y="465.00" font-family="DejaVu Sans, Arial, sans-serif" font-size="12" font-weight="400" fill="#5D6670" text-anchor="middle">CAFE</text>
<line x1="1339.58" y1="440.00" x2="1339.58" y2="445.00" stroke="#20242A" stroke-width="1"/>
<text x="1339.58" y="465.00" font-family="DejaVu Sans, Arial, sans-serif" font-size="12" font-weight="400" fill="#5D6670" text-anchor="middle">TPRec</text>
<line x1="1413.75" y1="440.00" x2="1413.75" y2="445.00" stroke="#20242A" stroke-width="1"/>
<text x="1413.75" y="465.00" font-family="DejaVu Sans, Arial, sans-serif" font-size="12" font-weight="400" fill="#5D6670" text-anchor="middle">KGGLM</text>
<line x1="1487.92" y1="440.00" x2="1487.92" y2="445.00" stroke="#20242A" stroke-width="1"/>
<text x="1487.92" y="465.00" font-family="DejaVu Sans, Arial, sans-serif" font-size="12" font-weight="400" fill="#5D6670" text-anchor="middle">PEARLM</text>
<text x="1080.00" y="122.00" font-family="DejaVu Sans, Arial, sans-serif" font-size="14" font-weight="600" fill="#5D6670" text-anchor="start">ETD</text>
<text x="1302.50" y="493.00" font-family="DejaVu Sans, Arial, sans-serif" font-size="14" font-weight="500" fill="#20242A" text-anchor="middle">Model</text>
<text x="1080.00" y="92.00" font-family="DejaVu Sans, Arial, sans-serif" font-size="19" font-weight="700" fill="#20242A" text-anchor="start">(c) LastFM - ETD</text>
<line x1="1117.08" y1="344.55" x2="1117.08" y2="197.15" stroke="#9098A0" stroke-width="1.5"/>
<circle cx="1117.08" cy="344.55" r="4.50" fill="#FFFFFF" stroke="#454B52" stroke-width="1.5"/>
<rect x="1112.58" y="192.65" width="9.00" height="9.00" rx="0" fill="#245A73" stroke="#245A73" stroke-width="1.5"/>
<line x1="1191.25" y1="358.23" x2="1191.25" y2="313.10" stroke="#9098A0" stroke-width="1.5"/>
<circle cx="1191.25" cy="358.23" r="4.50" fill="#FFFFFF" stroke="#454B52" stroke-width="1.5"/>
<rect x="1186.75" y="308.60" width="9.00" height="9.00" rx="0" fill="#245A73" stroke="#245A73" stroke-width="1.5"/>
<line x1="1265.42" y1="281.79" x2="1265.42" y2="185.11" stroke="#9098A0" stroke-width="1.5"/>
<circle cx="1265.42" cy="281.79" r="4.50" fill="#FFFFFF" stroke="#454B52" stroke-width="1.5"/>
<rect x="1260.92" y="180.61" width="9.00" height="9.00" rx="0" fill="#245A73" stroke="#245A73" stroke-width="1.5"/>
<line x1="1339.58" y1="319.26" x2="1339.58" y2="167.68" stroke="#9098A0" stroke-width="1.5"/>
<circle cx="1339.58" cy="319.26" r="4.50" fill="#FFFFFF" stroke="#454B52" stroke-width="1.5"/>
<rect x="1335.08" y="163.18" width="9.00" height="9.00" rx="0" fill="#245A73" stroke="#245A73" stroke-width="1.5"/>
<line x1="1413.75" y1="353.51" x2="1413.75" y2="351.53" stroke="#9098A0" stroke-width="1.5"/>
<circle cx="1413.75" cy="353.51" r="4.50" fill="#FFFFFF" stroke="#454B52" stroke-width="1.5"/>
<rect x="1409.25" y="347.03" width="9.00" height="9.00" rx="0" fill="#245A73" stroke="#245A73" stroke-width="1.5"/>
<line x1="1487.92" y1="364.04" x2="1487.92" y2="363.63" stroke="#9098A0" stroke-width="1.5"/>
<circle cx="1487.92" cy="364.04" r="4.50" fill="#FFFFFF" stroke="#454B52" stroke-width="1.5"/>
<rect x="1483.42" y="359.13" width="9.00" height="9.00" rx="0" fill="#245A73" stroke="#245A73" stroke-width="1.5"/>
<rect x="70.00" y="620.00" width="445.00" height="305.00" rx="0" fill="#FAFBFC" stroke="none" stroke-width="0"/>
<line x1="70.00" y1="925.00" x2="515.00" y2="925.00" stroke="#D9DEE5" stroke-width="1"/>
<text x="60.00" y="930.00" font-family="DejaVu Sans, Arial, sans-serif" font-size="12" font-weight="400" fill="#5D6670" text-anchor="end">0.0</text>
<line x1="70.00" y1="823.33" x2="515.00" y2="823.33" stroke="#D9DEE5" stroke-width="1"/>
<text x="60.00" y="828.33" font-family="DejaVu Sans, Arial, sans-serif" font-size="12" font-weight="400" fill="#5D6670" text-anchor="end">0.4</text>
<line x1="70.00" y1="721.67" x2="515.00" y2="721.67" stroke="#D9DEE5" stroke-width="1"/>
<text x="60.00" y="726.67" font-family="DejaVu Sans, Arial, sans-serif" font-size="12" font-weight="400" fill="#5D6670" text-anchor="end">0.7</text>
<line x1="70.00" y1="620.00" x2="515.00" y2="620.00" stroke="#D9DEE5" stroke-width="1"/>
<text x="60.00" y="625.00" font-family="DejaVu Sans, Arial, sans-serif" font-size="12" font-weight="400" fill="#5D6670" text-anchor="end">1.1</text>
<line x1="70.00" y1="620.00" x2="70.00" y2="925.00" stroke="#20242A" stroke-width="1.4"/>
<line x1="70.00" y1="925.00" x2="515.00" y2="925.00" stroke="#20242A" stroke-width="1.4"/>
<line x1="107.08" y1="925.00" x2="107.08" y2="930.00" stroke="#20242A" stroke-width="1"/>
<text x="107.08" y="950.00" font-family="DejaVu Sans, Arial, sans-serif" font-size="12" font-weight="400" fill="#5D6670" text-anchor="middle">PGPR</text>
<line x1="181.25" y1="925.00" x2="181.25" y2="930.00" stroke="#20242A" stroke-width="1"/>
<text x="181.25" y="950.00" font-family="DejaVu Sans, Arial, sans-serif" font-size="12" font-weight="400" fill="#5D6670" text-anchor="middle">UCPR</text>
<line x1="255.42" y1="925.00" x2="255.42" y2="930.00" stroke="#20242A" stroke-width="1"/>
<text x="255.42" y="950.00" font-family="DejaVu Sans, Arial, sans-serif" font-size="12" font-weight="400" fill="#5D6670" text-anchor="middle">CAFE</text>
<line x1="329.58" y1="925.00" x2="329.58" y2="930.00" stroke="#20242A" stroke-width="1"/>
<text x="329.58" y="950.00" font-family="DejaVu Sans, Arial, sans-serif" font-size="12" font-weight="400" fill="#5D6670" text-anchor="middle">TPRec</text>
<line x1="403.75" y1="925.00" x2="403.75" y2="930.00" stroke="#20242A" stroke-width="1"/>
<text x="403.75" y="950.00" font-family="DejaVu Sans, Arial, sans-serif" font-size="12" font-weight="400" fill="#5D6670" text-anchor="middle">KGGLM</text>
<line x1="477.92" y1="925.00" x2="477.92" y2="930.00" stroke="#20242A" stroke-width="1"/>
<text x="477.92" y="950.00" font-family="DejaVu Sans, Arial, sans-serif" font-size="12" font-weight="400" fill="#5D6670" text-anchor="middle">PEARLM</text>
<text x="70.00" y="607.00" font-family="DejaVu Sans, Arial, sans-serif" font-size="14" font-weight="600" fill="#5D6670" text-anchor="start">LIR</text>
<text x="292.50" y="978.00" font-family="DejaVu Sans, Arial, sans-serif" font-size="14" font-weight="500" fill="#20242A" text-anchor="middle">Model</text>
<text x="70.00" y="577.00" font-family="DejaVu Sans, Arial, sans-serif" font-size="19" font-weight="700" fill="#20242A" text-anchor="start">(d) ML-1M - LIR</text>
<line x1="107.08" y1="793.32" x2="107.08" y2="652.68" stroke="#9098A0" stroke-width="1.5"/>
<circle cx="107.08" cy="793.32" r="4.50" fill="#FFFFFF" stroke="#454B52" stroke-width="1.5"/>
<rect x="102.58" y="648.18" width="9.00" height="9.00" rx="0" fill="#245A73" stroke="#245A73" stroke-width="1.5"/>
<line x1="181.25" y1="795.78" x2="181.25" y2="717.31" stroke="#9098A0" stroke-width="1.5"/>
<circle cx="181.25" cy="795.78" r="4.50" fill="#FFFFFF" stroke="#454B52" stroke-width="1.5"/>
<rect x="176.75" y="712.81" width="9.00" height="9.00" rx="0" fill="#245A73" stroke="#245A73" stroke-width="1.5"/>
<line x1="255.42" y1="813.29" x2="255.42" y2="727.39" stroke="#9098A0" stroke-width="1.5"/>
<circle cx="255.42" cy="813.29" r="4.50" fill="#FFFFFF" stroke="#454B52" stroke-width="1.5"/>
<rect x="250.92" y="722.89" width="9.00" height="9.00" rx="0" fill="#245A73" stroke="#245A73" stroke-width="1.5"/>
<line x1="329.58" y1="797.65" x2="329.58" y2="657.66" stroke="#9098A0" stroke-width="1.5"/>
<circle cx="329.58" cy="797.65" r="4.50" fill="#FFFFFF" stroke="#454B52" stroke-width="1.5"/>
<rect x="325.08" y="653.16" width="9.00" height="9.00" rx="0" fill="#245A73" stroke="#245A73" stroke-width="1.5"/>
<line x1="403.75" y1="835.58" x2="403.75" y2="835.58" stroke="#9098A0" stroke-width="1.5"/>
<circle cx="403.75" cy="835.58" r="4.50" fill="#FFFFFF" stroke="#454B52" stroke-width="1.5"/>
<rect x="399.25" y="831.08" width="9.00" height="9.00" rx="0" fill="#245A73" stroke="#245A73" stroke-width="1.5"/>
<line x1="477.92" y1="805.49" x2="477.92" y2="804.16" stroke="#9098A0" stroke-width="1.5"/>
<circle cx="477.92" cy="805.49" r="4.50" fill="#FFFFFF" stroke="#454B52" stroke-width="1.5"/>
<rect x="473.42" y="799.66" width="9.00" height="9.00" rx="0" fill="#245A73" stroke="#245A73" stroke-width="1.5"/>
<rect x="575.00" y="620.00" width="445.00" height="305.00" rx="0" fill="#FAFBFC" stroke="none" stroke-width="0"/>
<line x1="575.00" y1="925.00" x2="1020.00" y2="925.00" stroke="#D9DEE5" stroke-width="1"/>
<text x="565.00" y="930.00" font-family="DejaVu Sans, Arial, sans-serif" font-size="12" font-weight="400" fill="#5D6670" text-anchor="end">0.0</text>
<line x1="575.00" y1="823.33" x2="1020.00" y2="823.33" stroke="#D9DEE5" stroke-width="1"/>
<text x="565.00" y="828.33" font-family="DejaVu Sans, Arial, sans-serif" font-size="12" font-weight="400" fill="#5D6670" text-anchor="end">0.4</text>
<line x1="575.00" y1="721.67" x2="1020.00" y2="721.67" stroke="#D9DEE5" stroke-width="1"/>
<text x="565.00" y="726.67" font-family="DejaVu Sans, Arial, sans-serif" font-size="12" font-weight="400" fill="#5D6670" text-anchor="end">0.7</text>
<line x1="575.00" y1="620.00" x2="1020.00" y2="620.00" stroke="#D9DEE5" stroke-width="1"/>
<text x="565.00" y="625.00" font-family="DejaVu Sans, Arial, sans-serif" font-size="12" font-weight="400" fill="#5D6670" text-anchor="end">1.1</text>
<line x1="575.00" y1="620.00" x2="575.00" y2="925.00" stroke="#20242A" stroke-width="1.4"/>
<line x1="575.00" y1="925.00" x2="1020.00" y2="925.00" stroke="#20242A" stroke-width="1.4"/>
<line x1="612.08" y1="925.00" x2="612.08" y2="930.00" stroke="#20242A" stroke-width="1"/>
<text x="612.08" y="950.00" font-family="DejaVu Sans, Arial, sans-serif" font-size="12" font-weight="400" fill="#5D6670" text-anchor="middle">PGPR</text>
<line x1="686.25" y1="925.00" x2="686.25" y2="930.00" stroke="#20242A" stroke-width="1"/>
<text x="686.25" y="950.00" font-family="DejaVu Sans, Arial, sans-serif" font-size="12" font-weight="400" fill="#5D6670" text-anchor="middle">UCPR</text>
<line x1="760.42" y1="925.00" x2="760.42" y2="930.00" stroke="#20242A" stroke-width="1"/>
<text x="760.42" y="950.00" font-family="DejaVu Sans, Arial, sans-serif" font-size="12" font-weight="400" fill="#5D6670" text-anchor="middle">CAFE</text>
<line x1="834.58" y1="925.00" x2="834.58" y2="930.00" stroke="#20242A" stroke-width="1"/>
<text x="834.58" y="950.00" font-family="DejaVu Sans, Arial, sans-serif" font-size="12" font-weight="400" fill="#5D6670" text-anchor="middle">TPRec</text>
<line x1="908.75" y1="925.00" x2="908.75" y2="930.00" stroke="#20242A" stroke-width="1"/>
<text x="908.75" y="950.00" font-family="DejaVu Sans, Arial, sans-serif" font-size="12" font-weight="400" fill="#5D6670" text-anchor="middle">KGGLM</text>
<line x1="982.92" y1="925.00" x2="982.92" y2="930.00" stroke="#20242A" stroke-width="1"/>
<text x="982.92" y="950.00" font-family="DejaVu Sans, Arial, sans-serif" font-size="12" font-weight="400" fill="#5D6670" text-anchor="middle">PEARLM</text>
<text x="575.00" y="607.00" font-family="DejaVu Sans, Arial, sans-serif" font-size="14" font-weight="600" fill="#5D6670" text-anchor="start">SEP</text>
<text x="797.50" y="978.00" font-family="DejaVu Sans, Arial, sans-serif" font-size="14" font-weight="500" fill="#20242A" text-anchor="middle">Model</text>
<text x="575.00" y="577.00" font-family="DejaVu Sans, Arial, sans-serif" font-size="19" font-weight="700" fill="#20242A" text-anchor="start">(e) ML-1M - SEP</text>
<line x1="612.08" y1="792.12" x2="612.08" y2="652.68" stroke="#9098A0" stroke-width="1.5"/>
<circle cx="612.08" cy="792.12" r="4.50" fill="#FFFFFF" stroke="#454B52" stroke-width="1.5"/>
<rect x="607.58" y="648.18" width="9.00" height="9.00" rx="0" fill="#245A73" stroke="#245A73" stroke-width="1.5"/>
<line x1="686.25" y1="788.33" x2="686.25" y2="719.89" stroke="#9098A0" stroke-width="1.5"/>
<circle cx="686.25" cy="788.33" r="4.50" fill="#FFFFFF" stroke="#454B52" stroke-width="1.5"/>
<rect x="681.75" y="715.39" width="9.00" height="9.00" rx="0" fill="#245A73" stroke="#245A73" stroke-width="1.5"/>
<line x1="760.42" y1="797.08" x2="760.42" y2="653.84" stroke="#9098A0" stroke-width="1.5"/>
<circle cx="760.42" cy="797.08" r="4.50" fill="#FFFFFF" stroke="#454B52" stroke-width="1.5"/>
<rect x="755.92" y="649.34" width="9.00" height="9.00" rx="0" fill="#245A73" stroke="#245A73" stroke-width="1.5"/>
<line x1="834.58" y1="787.97" x2="834.58" y2="656.25" stroke="#9098A0" stroke-width="1.5"/>
<circle cx="834.58" cy="787.97" r="4.50" fill="#FFFFFF" stroke="#454B52" stroke-width="1.5"/>
<rect x="830.08" y="651.75" width="9.00" height="9.00" rx="0" fill="#245A73" stroke="#245A73" stroke-width="1.5"/>
<line x1="908.75" y1="792.31" x2="908.75" y2="792.31" stroke="#9098A0" stroke-width="1.5"/>
<circle cx="908.75" cy="792.31" r="4.50" fill="#FFFFFF" stroke="#454B52" stroke-width="1.5"/>
<rect x="904.25" y="787.81" width="9.00" height="9.00" rx="0" fill="#245A73" stroke="#245A73" stroke-width="1.5"/>
<line x1="982.92" y1="783.92" x2="982.92" y2="779.16" stroke="#9098A0" stroke-width="1.5"/>
<circle cx="982.92" cy="783.92" r="4.50" fill="#FFFFFF" stroke="#454B52" stroke-width="1.5"/>
<rect x="978.42" y="774.66" width="9.00" height="9.00" rx="0" fill="#245A73" stroke="#245A73" stroke-width="1.5"/>
<rect x="1080.00" y="620.00" width="445.00" height="305.00" rx="0" fill="#FAFBFC" stroke="none" stroke-width="0"/>
<line x1="1080.00" y1="925.00" x2="1525.00" y2="925.00" stroke="#D9DEE5" stroke-width="1"/>
<text x="1070.00" y="930.00" font-family="DejaVu Sans, Arial, sans-serif" font-size="12" font-weight="400" fill="#5D6670" text-anchor="end">0.0</text>
<line x1="1080.00" y1="823.33" x2="1525.00" y2="823.33" stroke="#D9DEE5" stroke-width="1"/>
<text x="1070.00" y="828.33" font-family="DejaVu Sans, Arial, sans-serif" font-size="12" font-weight="400" fill="#5D6670" text-anchor="end">0.3</text>
<line x1="1080.00" y1="721.67" x2="1525.00" y2="721.67" stroke="#D9DEE5" stroke-width="1"/>
<text x="1070.00" y="726.67" font-family="DejaVu Sans, Arial, sans-serif" font-size="12" font-weight="400" fill="#5D6670" text-anchor="end">0.6</text>
<line x1="1080.00" y1="620.00" x2="1525.00" y2="620.00" stroke="#D9DEE5" stroke-width="1"/>
<text x="1070.00" y="625.00" font-family="DejaVu Sans, Arial, sans-serif" font-size="12" font-weight="400" fill="#5D6670" text-anchor="end">1.0</text>
<line x1="1080.00" y1="620.00" x2="1080.00" y2="925.00" stroke="#20242A" stroke-width="1.4"/>
<line x1="1080.00" y1="925.00" x2="1525.00" y2="925.00" stroke="#20242A" stroke-width="1.4"/>
<line x1="1117.08" y1="925.00" x2="1117.08" y2="930.00" stroke="#20242A" stroke-width="1"/>
<text x="1117.08" y="950.00" font-family="DejaVu Sans, Arial, sans-serif" font-size="12" font-weight="400" fill="#5D6670" text-anchor="middle">PGPR</text>
<line x1="1191.25" y1="925.00" x2="1191.25" y2="930.00" stroke="#20242A" stroke-width="1"/>
<text x="1191.25" y="950.00" font-family="DejaVu Sans, Arial, sans-serif" font-size="12" font-weight="400" fill="#5D6670" text-anchor="middle">UCPR</text>
<line x1="1265.42" y1="925.00" x2="1265.42" y2="930.00" stroke="#20242A" stroke-width="1"/>
<text x="1265.42" y="950.00" font-family="DejaVu Sans, Arial, sans-serif" font-size="12" font-weight="400" fill="#5D6670" text-anchor="middle">CAFE</text>
<line x1="1339.58" y1="925.00" x2="1339.58" y2="930.00" stroke="#20242A" stroke-width="1"/>
<text x="1339.58" y="950.00" font-family="DejaVu Sans, Arial, sans-serif" font-size="12" font-weight="400" fill="#5D6670" text-anchor="middle">TPRec</text>
<line x1="1413.75" y1="925.00" x2="1413.75" y2="930.00" stroke="#20242A" stroke-width="1"/>
<text x="1413.75" y="950.00" font-family="DejaVu Sans, Arial, sans-serif" font-size="12" font-weight="400" fill="#5D6670" text-anchor="middle">KGGLM</text>
<line x1="1487.92" y1="925.00" x2="1487.92" y2="930.00" stroke="#20242A" stroke-width="1"/>
<text x="1487.92" y="950.00" font-family="DejaVu Sans, Arial, sans-serif" font-size="12" font-weight="400" fill="#5D6670" text-anchor="middle">PEARLM</text>
<text x="1080.00" y="607.00" font-family="DejaVu Sans, Arial, sans-serif" font-size="14" font-weight="600" fill="#5D6670" text-anchor="start">ETD</text>
<text x="1302.50" y="978.00" font-family="DejaVu Sans, Arial, sans-serif" font-size="14" font-weight="500" fill="#20242A" text-anchor="middle">Model</text>
<text x="1080.00" y="577.00" font-family="DejaVu Sans, Arial, sans-serif" font-size="19" font-weight="700" fill="#20242A" text-anchor="start">(f) ML-1M - ETD</text>
<line x1="1117.08" y1="873.64" x2="1117.08" y2="759.51" stroke="#9098A0" stroke-width="1.5"/>
<circle cx="1117.08" cy="873.64" r="4.50" fill="#FFFFFF" stroke="#454B52" stroke-width="1.5"/>
<rect x="1112.58" y="755.01" width="9.00" height="9.00" rx="0" fill="#245A73" stroke="#245A73" stroke-width="1.5"/>
<line x1="1191.25" y1="858.43" x2="1191.25" y2="843.55" stroke="#9098A0" stroke-width="1.5"/>
<circle cx="1191.25" cy="858.43" r="4.50" fill="#FFFFFF" stroke="#454B52" stroke-width="1.5"/>
<rect x="1186.75" y="839.05" width="9.00" height="9.00" rx="0" fill="#245A73" stroke="#245A73" stroke-width="1.5"/>
<line x1="1265.42" y1="832.48" x2="1265.42" y2="652.68" stroke="#9098A0" stroke-width="1.5"/>
<circle cx="1265.42" cy="832.48" r="4.50" fill="#FFFFFF" stroke="#454B52" stroke-width="1.5"/>
<rect x="1260.92" y="648.18" width="9.00" height="9.00" rx="0" fill="#245A73" stroke="#245A73" stroke-width="1.5"/>
<line x1="1339.58" y1="833.38" x2="1339.58" y2="692.24" stroke="#9098A0" stroke-width="1.5"/>
<circle cx="1339.58" cy="833.38" r="4.50" fill="#FFFFFF" stroke="#454B52" stroke-width="1.5"/>
<rect x="1335.08" y="687.74" width="9.00" height="9.00" rx="0" fill="#245A73" stroke="#245A73" stroke-width="1.5"/>
<line x1="1413.75" y1="894.71" x2="1413.75" y2="894.71" stroke="#9098A0" stroke-width="1.5"/>
<circle cx="1413.75" cy="894.71" r="4.50" fill="#FFFFFF" stroke="#454B52" stroke-width="1.5"/>
<rect x="1409.25" y="890.21" width="9.00" height="9.00" rx="0" fill="#245A73" stroke="#245A73" stroke-width="1.5"/>
<line x1="1487.92" y1="893.63" x2="1487.92" y2="893.47" stroke="#9098A0" stroke-width="1.5"/>
<circle cx="1487.92" cy="893.63" r="4.50" fill="#FFFFFF" stroke="#454B52" stroke-width="1.5"/>
<rect x="1483.42" y="888.97" width="9.00" height="9.00" rx="0" fill="#245A73" stroke="#245A73" stroke-width="1.5"/>
<text x="70.00" y="1060.00" font-family="DejaVu Sans, Arial, sans-serif" font-size="15" font-weight="400" fill="#5D6670" text-anchor="start">Panel scales are metric-specific; endpoints are alpha-sweep evidence, not strict accuracy.</text>
</svg>
