<?xml version="1.0" encoding="UTF-8" standalone="no"?>
<!DOCTYPE svg PUBLIC "-//W3C//DTD SVG 1.1//EN"
 "http://www.w3.org/Graphics/SVG/1.1/DTD/svg11.dtd">
<!-- Generated by graphviz version 14.1.2 (20260126.1125)
 -->
<!-- Title: amazon_boundary Pages: 1 -->
<svg width="462pt" height="409pt"
 viewBox="0.00 0.00 462.00 409.00" xmlns="http://www.w3.org/2000/svg" xmlns:xlink="http://www.w3.org/1999/xlink">
<g id="graph0" class="graph" transform="scale(1 1) rotate(0) translate(5.76 403.01)">
<title>amazon_boundary</title>
<polygon fill="white" stroke="none" points="-5.76,5.76 -5.76,-403.01 456.1,-403.01 456.1,5.76 -5.76,5.76"/>
<!-- row&#45;&gt;export -->
<g id="edge1" class="edge">
<title>row&#45;&gt;export</title>
<path fill="none" stroke="#202124" d="M322.28,-360.83C322.28,-353.98 322.28,-345.99 322.28,-338.52"/>
<polygon fill="#202124" stroke="#202124" points="324.55,-338.73 322.28,-332.23 320,-338.73 324.55,-338.73"/>
</g>
<!-- export&#45;&gt;validation -->
<g id="edge2" class="edge">
<title>export&#45;&gt;validation</title>
<path fill="none" stroke="#2f6f55" d="M307.98,-295.97C297.67,-284.95 283.64,-269.95 272.37,-257.9"/>
<polygon fill="#2f6f55" stroke="#2f6f55" points="274.22,-256.56 268.12,-253.36 270.9,-259.66 274.22,-256.56"/>
<text xml:space="preserve" text-anchor="middle" x="298.66" y="-272.12" font-family="DejaVu Sans" font-size="7.50" fill="#2f6f55">YES</text>
</g>
<!-- export&#45;&gt;blocked -->
<g id="edge4" class="edge">
<title>export&#45;&gt;blocked</title>
<path fill="none" stroke="#9a6500" d="M333.7,-295.44C345.83,-278.65 363.28,-254.5 363.28,-254.5 363.28,-254.5 375.93,-214.03 384.52,-186.56"/>
<polygon fill="#9a6500" stroke="#9a6500" points="386.6,-187.52 386.37,-180.64 382.26,-186.17 386.6,-187.52"/>
<text xml:space="preserve" text-anchor="middle" x="380.04" y="-234.25" font-family="DejaVu Sans" font-size="7.50" fill="#9a6500">NO</text>
</g>
<!-- validation&#45;&gt;sweep -->
<g id="edge3" class="edge">
<title>validation&#45;&gt;sweep</title>
<path fill="none" stroke="#2f6f55" d="M236.5,-221.28C223.45,-210.22 205.17,-194.72 190.53,-182.31"/>
<polygon fill="#2f6f55" stroke="#2f6f55" points="192.08,-180.65 185.65,-178.18 189.14,-184.12 192.08,-180.65"/>
<text xml:space="preserve" text-anchor="middle" x="221.73" y="-196.38" font-family="DejaVu Sans" font-size="7.50" fill="#2f6f55">YES</text>
</g>
<!-- validation&#45;&gt;blocked -->
<g id="edge5" class="edge">
<title>validation&#45;&gt;blocked</title>
<path fill="none" stroke="#9a6500" d="M277.81,-222.48C298.45,-211.53 328.37,-195.66 352.44,-182.89"/>
<polygon fill="#9a6500" stroke="#9a6500" points="353.37,-184.97 358.04,-179.91 351.24,-180.95 353.37,-184.97"/>
<text xml:space="preserve" text-anchor="middle" x="336.72" y="-196.38" font-family="DejaVu Sans" font-size="7.50" fill="#9a6500">NO</text>
</g>
<!-- sweep&#45;&gt;partial -->
<g id="edge6" class="edge">
<title>sweep&#45;&gt;partial</title>
<path fill="none" stroke="#9a6500" d="M157.84,-143.38C152.82,-133.64 146.35,-121.09 140.75,-110.21"/>
<polygon fill="#9a6500" stroke="#9a6500" points="142.91,-109.43 137.91,-104.69 138.86,-111.51 142.91,-109.43"/>
<text xml:space="preserve" text-anchor="middle" x="155.18" y="-120.62" font-family="DejaVu Sans" font-size="7.50" fill="#9a6500">NO</text>
</g>
<!-- sweep&#45;&gt;eligible -->
<g id="edge7" class="edge">
<title>sweep&#45;&gt;eligible</title>
<path fill="none" stroke="#2f6f55" d="M190.87,-145C208.88,-134.2 233.6,-119.38 253.76,-107.3"/>
<polygon fill="#2f6f55" stroke="#2f6f55" points="254.7,-109.38 259.1,-104.09 252.36,-105.48 254.7,-109.38"/>
<text xml:space="preserve" text-anchor="middle" x="241.89" y="-120.62" font-family="DejaVu Sans" font-size="7.50" fill="#2f6f55">YES</text>
</g>
<!-- blocked&#45;&gt;discussion -->
<g id="edge8" class="edge">
<title>blocked&#45;&gt;discussion</title>
<path fill="none" stroke="#202124" d="M388.51,-142.3C382.72,-115.44 372.28,-67 372.28,-67 372.28,-67 338.66,-52.59 308.26,-39.56"/>
<polygon fill="#202124" stroke="#202124" points="309.29,-37.53 302.42,-37.06 307.5,-41.71 309.29,-37.53"/>
</g>
<!-- partial&#45;&gt;discussion -->
<g id="edge9" class="edge">
<title>partial&#45;&gt;discussion</title>
<path fill="none" stroke="#202124" d="M163.65,-66.58C180.37,-58.35 200.46,-48.46 217.98,-39.83"/>
<polygon fill="#202124" stroke="#202124" points="218.62,-42.05 223.45,-37.14 216.61,-37.97 218.62,-42.05"/>
</g>
<!-- row -->
<g id="node1" class="node">
<title>row</title>
<polygon fill="#eaf3f8" stroke="#202124" points="396.92,-397.25 247.64,-397.25 247.64,-361.25 396.92,-361.25 396.92,-397.25"/>
<text xml:space="preserve" text-anchor="middle" x="322.28" y="-376.43" font-family="DejaVu Sans" font-size="8.50" fill="#202124">Amazon&#45;Book KGAT model row</text>
</g>
<!-- export -->
<g id="node2" class="node">
<title>export</title>
<polygon fill="white" stroke="#202124" points="322.28,-330.25 194.21,-312.25 322.28,-294.25 450.34,-312.25 322.28,-330.25"/>
<text xml:space="preserve" text-anchor="middle" x="322.28" y="-309.43" font-family="DejaVu Sans" font-size="8.50" fill="#202124">Native&#45;path export complete?</text>
</g>
<!-- validation -->
<g id="node3" class="node">
<title>validation</title>
<polygon fill="white" stroke="#202124" points="253.28,-254.5 152.48,-236.5 253.28,-218.5 354.08,-236.5 253.28,-254.5"/>
<text xml:space="preserve" text-anchor="middle" x="253.28" y="-233.68" font-family="DejaVu Sans" font-size="8.50" fill="#202124">Validation gates pass?</text>
</g>
<!-- sweep -->
<g id="node4" class="node">
<title>sweep</title>
<polygon fill="white" stroke="#202124" points="166.28,-178.75 0,-160.75 166.28,-142.75 332.55,-160.75 166.28,-178.75"/>
<text xml:space="preserve" text-anchor="middle" x="166.28" y="-157.93" font-family="DejaVu Sans" font-size="8.50" fill="#202124">Complete explanation sweep available?</text>
</g>
<!-- blocked -->
<g id="node5" class="node">
<title>blocked</title>
<polygon fill="#fff4df" stroke="#9a6500" points="433.17,-178.75 351.39,-178.75 351.39,-142.75 433.17,-142.75 433.17,-178.75"/>
<text xml:space="preserve" text-anchor="middle" x="392.28" y="-163.18" font-family="DejaVu Sans" font-size="8.50" fill="#202124">Boundary case</text>
<text xml:space="preserve" text-anchor="middle" x="392.28" y="-152.68" font-family="DejaVu Sans" font-size="8.50" fill="#202124">BLOCKED / N/A</text>
</g>
<!-- partial -->
<g id="node6" class="node">
<title>partial</title>
<polygon fill="#fff4df" stroke="#9a6500" points="196.92,-103 59.64,-103 59.64,-67 196.92,-67 196.92,-103"/>
<text xml:space="preserve" text-anchor="middle" x="128.28" y="-87.42" font-family="DejaVu Sans" font-size="8.50" fill="#202124">Partial evidence only</text>
<text xml:space="preserve" text-anchor="middle" x="128.28" y="-76.92" font-family="DejaVu Sans" font-size="8.50" fill="#202124">No complete sweep protocol</text>
</g>
<!-- eligible -->
<g id="node7" class="node">
<title>eligible</title>
<polygon fill="#eaf4ef" stroke="#2f6f55" points="362.79,-103 215.76,-103 215.76,-67 362.79,-67 362.79,-103"/>
<text xml:space="preserve" text-anchor="middle" x="289.28" y="-82.17" font-family="DejaVu Sans" font-size="8.50" fill="#202124">Eligible for main&#45;style analysis</text>
</g>
<!-- discussion -->
<g id="node8" class="node">
<title>discussion</title>
<polygon fill="#f5f6f7" stroke="#5f6368" points="318.79,-36 201.76,-36 201.76,0 318.79,0 318.79,-36"/>
<text xml:space="preserve" text-anchor="middle" x="260.28" y="-20.43" font-family="DejaVu Sans" font-size="8.50" fill="#202124">Boundary discussion</text>
<text xml:space="preserve" text-anchor="middle" x="260.28" y="-9.93" font-family="DejaVu Sans" font-size="8.50" fill="#202124">No blocked&#45;row ranking</text>
</g>
</g>
</svg>
